<?xml version="1.0" encoding="UTF-8"?>
<svg version="1.1" xmlns="http://www.w3.org/2000/svg" width="1059" height="1008" viewBox="0 0 1059 1008">
<path d="M0 0 C1.60634811 0.00415421 1.60634811 0.00415421 3.24514771 0.00839233 C25.00820978 0.07434777 46.28700815 1.06891444 67.6875 5.25 C68.38842773 5.38100098 69.08935547 5.51200195 69.81152344 5.64697266 C117.76723278 14.65637103 165.26571001 32.12279561 206.05419922 59.16796875 C207.61121532 60.19946282 209.18225746 61.20969141 210.75390625 62.21875 C240.6262127 81.62978269 270.74570448 106.49115654 292.671875 134.67578125 C294.56180742 137.08947401 296.53801471 139.405126 298.55224609 141.71533203 C344.52109164 194.71642254 372.34540714 264.89840906 381.24536133 333.93164062 C381.54141206 336.15357412 381.86972487 338.37143436 382.22924805 340.58398438 C384.12676285 353.19463955 384.02449134 365.82321065 384.00317383 378.55371094 C384.00004008 382.45016178 384.02344711 386.34583143 384.04882812 390.2421875 C384.10448046 412.10137064 382.5700137 433.83943817 378.3125 455.3125 C378.09899902 456.42133545 377.88549805 457.5301709 377.66552734 458.67260742 C364.13622429 527.26706726 331.41941776 592.42800245 283.42578125 643.3203125 C280.24329707 646.69705365 277.21785046 650.20484134 274.2109375 653.73828125 C272.6875 655.25 272.6875 655.25 270.6875 655.25 C270.6875 655.91 270.6875 656.57 270.6875 657.25 C269.18359375 658.73046875 269.18359375 658.73046875 267.125 660.4375 C264.41267387 662.73728702 261.83783357 665.06054465 259.375 667.625 C255.69967186 671.3585347 251.69182269 674.60582071 247.609375 677.8828125 C245.72174909 679.41209232 243.85519373 680.967925 242.015625 682.5546875 C212.7015038 707.81120436 177.43815742 726.87410818 141.6875 741.25 C140.82479492 741.59724121 139.96208984 741.94448242 139.07324219 742.30224609 C113.85465417 752.28758562 87.45882829 759.08342006 60.6875 763.25 C59.68444824 763.40694336 58.68139648 763.56388672 57.64794922 763.72558594 C54.76740479 764.16684871 51.88513266 764.58987105 49 765 C48.18837402 765.11585449 47.37674805 765.23170898 46.54052734 765.35107422 C31.26501972 767.36998561 15.88222138 767.49070351 0.5 767.5 C-1.01809769 767.50101212 -1.01809769 767.50101212 -2.56686401 767.50204468 C-19.33141178 767.48437954 -35.70571341 766.71493721 -52.3125 764.25 C-54.05394287 764.00056641 -54.05394287 764.00056641 -55.83056641 763.74609375 C-91.74561668 758.47809778 -126.25439221 748.23736785 -159.3125 733.25 C-160.13959473 732.88358398 -160.96668945 732.51716797 -161.81884766 732.13964844 C-183.5017467 722.50935755 -204.14272388 710.21801302 -223.3125 696.25 C-224.35921875 695.49589844 -225.4059375 694.74179687 -226.484375 693.96484375 C-233.47748898 688.82870952 -240.09663301 683.31747252 -246.66357422 677.65625 C-248.2509178 676.30251902 -249.85719335 674.97621969 -251.47265625 673.65625 C-259.3135594 667.18895298 -266.56872326 660.18217114 -273.75 653 C-274.22267303 652.52823334 -274.69534607 652.05646667 -275.18234253 651.57040405 C-280.77720915 645.97432076 -286.21214034 640.30146271 -291.3125 634.25 C-291.82256592 633.64671875 -292.33263184 633.0434375 -292.8581543 632.421875 C-324.48171087 594.66603228 -348.50115041 551.83026418 -364.30957031 505.20166016 C-365.14401464 502.74585881 -365.99735268 500.29887114 -366.8671875 497.85546875 C-372.42080438 481.93625017 -375.72125356 465.71545479 -378.5 449.125 C-378.62655975 448.37489655 -378.75311951 447.62479309 -378.8835144 446.85195923 C-379.75307531 441.65963701 -380.5574564 436.46017033 -381.3125 431.25 C-381.41495026 430.55948547 -381.51740051 429.86897095 -381.62295532 429.15753174 C-383.69582071 414.77370012 -383.6688749 400.38280547 -383.625 385.875 C-383.62317719 384.62988647 -383.62135437 383.38477295 -383.61947632 382.10192871 C-383.57546368 364.27723855 -383.18783927 346.86994318 -380.3125 329.25 C-380.06306641 327.59436035 -380.06306641 327.59436035 -379.80859375 325.90527344 C-374.39349485 290.21576051 -364.14634437 254.74455923 -348.3125 222.25 C-347.79840576 221.18652344 -347.79840576 221.18652344 -347.27392578 220.1015625 C-345.01674909 215.45106538 -342.68464153 210.84274283 -340.3125 206.25 C-339.99990234 205.63882324 -339.68730469 205.02764648 -339.36523438 204.39794922 C-328.032779 182.30200749 -314.11492578 162.15126965 -298.57373047 142.81982422 C-297.34647464 141.29228744 -296.12818018 139.75756445 -294.91015625 138.22265625 C-290.98566687 133.33213872 -286.98050083 128.71274745 -282.4296875 124.39453125 C-280.54561218 122.48612285 -278.81493172 120.5266705 -277.0703125 118.4921875 C-273.38365726 114.24915756 -269.42602557 110.38810265 -265.3125 106.5625 C-264.57265869 105.87188477 -263.83281738 105.18126953 -263.07055664 104.46972656 C-251.65412028 93.86918551 -239.96218472 83.88417008 -227.34960938 74.72949219 C-225.99834694 73.74811032 -224.65063583 72.76181878 -223.30664062 71.77050781 C-172.08716553 34.01543312 -109.53576356 9.37133528 -46.3125 2.25 C-45.16169449 2.12029816 -45.16169449 2.12029816 -43.98764038 1.98797607 C-29.30402816 0.37843002 -14.76385596 -0.07510526 0 0 Z " fill="#DDDED7" transform="translate(523.3125,101.75)"/>
<path d="M0 0 C33.66 0 67.32 0 102 0 C102 11.16302412 101.77983184 21.43620666 100.3125 32.375 C100.22452148 33.05199951 100.13654297 33.72899902 100.04589844 34.42651367 C96.64823644 60.55136816 91.41438281 85.84940382 82.8125 110.75 C82.38355942 111.99925262 82.38355942 111.99925262 81.94595337 113.27374268 C77.61581634 125.84903842 72.92608451 138.07898973 67 150 C66.34003191 151.36925533 65.68117005 152.73904442 65.0234375 154.109375 C63.08406026 158.10943117 61.06305814 162.06247883 59 166 C58.6385791 166.6923877 58.2771582 167.38477539 57.90478516 168.09814453 C43.78765589 194.90551042 25.60809845 219.1697892 5.25 241.52734375 C3.65518191 243.27998238 2.0730813 245.04423185 0.5 246.81640625 C-3.71127961 251.53483691 -7.91770469 256.00680013 -12.76171875 260.07421875 C-15.06282544 262.054054 -17.2710353 264.11879851 -19.47875977 266.20166016 C-26.64495322 272.94168668 -34.15112707 279.07555916 -42 285 C-42.59538574 285.4522998 -43.19077148 285.90459961 -43.80419922 286.37060547 C-87.0409862 319.10321201 -136.93044318 341.80601489 -190 353 C-190.77279297 353.1659668 -191.54558594 353.33193359 -192.34179688 353.50292969 C-202.8313602 355.72685063 -213.35756014 357.44014909 -224 358.75 C-224.98218506 358.87769775 -225.96437012 359.00539551 -226.97631836 359.13696289 C-237.45222207 360.34061335 -247.23292816 360 -258 360 C-258 326.34 -258 292.68 -258 258 C-249.42 257.34 -240.84 256.68 -232 256 C-220.04679304 254.37672498 -208.59377163 252.22837418 -197 249 C-196.2467041 248.79536133 -195.4934082 248.59072266 -194.71728516 248.37988281 C-154.19178079 237.27995961 -116.27989483 216.67384954 -85.80078125 187.6484375 C-83.46135961 185.43626474 -81.08292216 183.3272497 -78.625 181.25 C-74.67517303 177.81751003 -71.36005667 174.00133986 -68 170 C-66.76443359 168.57880859 -66.76443359 168.57880859 -65.50390625 167.12890625 C-41.60014781 139.54433105 -24.50097863 108.62029281 -13 74 C-12.49279743 72.52452977 -11.98505074 71.04924639 -11.4765625 69.57421875 C-6.72846989 55.48249009 -4.27361978 40.89346214 -2.3125 26.1875 C-2.19310059 25.29409912 -2.07370117 24.40069824 -1.95068359 23.48022461 C-0.96649626 15.64162118 -0.528224 7.92336002 0 0 Z " fill="#1D1E1D" transform="translate(790,493)"/>
<path d="M0 0 C33.99 0 67.98 0 103 0 C103.33 6.6 103.66 13.2 104 20 C104.5434942 24.32102371 105.12060526 28.53663666 105.875 32.8125 C106.11669922 34.27719727 106.11669922 34.27719727 106.36328125 35.77148438 C106.88125809 38.85324582 107.43521362 41.92648406 108 45 C108.21092285 46.18231201 108.4218457 47.36462402 108.63916016 48.58276367 C110.31717003 57.53970826 112.69399125 66.0637882 115.625 74.6875 C115.84309326 75.33441803 116.06118652 75.98133606 116.28588867 76.64785767 C120.16148105 88.10647457 124.61503839 99.16336858 130 110 C130.38623535 110.78874512 130.7724707 111.57749023 131.17041016 112.39013672 C139.6066258 129.49393373 150.01915204 145.17910802 162 160 C162.43135254 160.53431641 162.86270508 161.06863281 163.30712891 161.61914062 C167.45950782 166.73116022 171.63448583 171.75065808 176.3984375 176.30859375 C176.95740723 176.84476318 177.51637695 177.38093262 178.09228516 177.93334961 C179.17419348 178.95582467 180.26983162 179.96401861 181.38037109 180.95532227 C182.859375 182.34375 182.859375 182.34375 185 185 C184.88303955 187.97599367 184.07291445 189.82414751 182.9375 192.5625 C180.13778017 202.82813938 182.10256675 213.15066465 187.3203125 222.3203125 C192.11373688 229.20922295 198.91791225 234.53840466 207 237 C209.9717324 237.4030578 212.87971132 237.42994204 215.875 237.375 C216.67147949 237.36484863 217.46795898 237.35469727 218.28857422 237.34423828 C227.35986367 237.10449308 233.2955539 235.0508835 240.37109375 229.3046875 C242 228 242 228 244 227 C246.04589844 227.8293457 246.04589844 227.8293457 248.609375 229.17578125 C249.57641357 229.66941162 250.54345215 230.16304199 251.53979492 230.67163086 C252.5991626 231.21311768 253.65853027 231.75460449 254.75 232.3125 C278.98261966 244.2988122 304.98280166 251.71633547 331.6875 255.75 C332.44554932 255.86593506 333.20359863 255.98187012 333.98461914 256.10131836 C342.99097253 257.33531001 351.8459995 257.5182105 361 258 C361 291.99 361 325.98 361 361 C349.72909968 361 349.72909968 361 344.84765625 360.484375 C343.21038574 360.3128894 343.21038574 360.3128894 341.54003906 360.13793945 C340.39245117 360.00991943 339.24486328 359.88189941 338.0625 359.75 C336.83885742 359.61360107 335.61521484 359.47720215 334.35449219 359.33666992 C330.56797276 358.90430676 326.78376565 358.4557977 323 358 C321.87255371 357.86609863 320.74510742 357.73219727 319.58349609 357.59423828 C264.51984739 350.85325146 209.61446428 330.71268057 164 299 C163.3905957 298.57912109 162.78119141 298.15824219 162.15332031 297.72460938 C158.05389518 294.88100174 154.00932968 291.96912874 150 289 C149.45923828 288.59958496 148.91847656 288.19916992 148.36132812 287.78662109 C127.66395796 272.3629806 107.7030931 254.70550859 91 235 C90.19046875 234.06800781 89.3809375 233.13601563 88.546875 232.17578125 C56.74330797 195.38013013 32.82899798 152.2518167 18 106 C17.70754395 105.09233887 17.41508789 104.18467773 17.11376953 103.24951172 C9.09694203 78.12193042 3.93565228 52.54194069 1.25 26.3125 C1.12222168 25.07185791 0.99444336 23.83121582 0.86279297 22.55297852 C0.13263731 14.92434099 0 7.75402302 0 0 Z " fill="#1E1E1E" transform="translate(155,493)"/>
<path d="M0 0 C0 33.99 0 67.98 0 103 C-14.355 103.99 -14.355 103.99 -29 105 C-55.49535873 109.11343469 -82.75435052 115.5227128 -106.328125 128.88671875 C-109 130 -109 130 -111.14453125 129.3671875 C-113.02222933 127.98362049 -114.87421069 126.59235781 -116.6875 125.125 C-127.18897647 117.1117465 -139.11624604 115.64772594 -152 117 C-163.84131312 119.97701559 -172.17672725 126.82266662 -178.4921875 137.05859375 C-182.21684262 144.32456604 -183.50244552 150.24845992 -183.4375 158.4375 C-183.45748047 159.32759766 -183.47746094 160.21769531 -183.49804688 161.13476562 C-183.49381986 166.9215537 -182.51203516 170.95396933 -179.66430664 176.01196289 C-179 178 -179 178 -179.75537109 180.11865234 C-181.40842777 182.61736846 -183.39070021 184.49946013 -185.5625 186.5625 C-190.82623758 191.7280617 -195.44861446 197.20519469 -200 203 C-200.79148437 203.98613281 -201.58296875 204.97226562 -202.3984375 205.98828125 C-229.70109719 240.56877925 -247.37795427 281.94871456 -254.875 325.25 C-255.07843018 326.40781982 -255.28186035 327.56563965 -255.49145508 328.75854492 C-257.23571155 339.61950901 -257.46687342 349.80434177 -258 361 C-291.66 361 -325.32 361 -360 361 C-360 335.53173701 -360 335.53173701 -358.8125 327.375 C-358.6794043 326.40030762 -358.54630859 325.42561523 -358.40917969 324.42138672 C-357.96536066 321.27642747 -357.48886277 318.13826051 -357 315 C-356.82839355 313.88818359 -356.65678711 312.77636719 -356.47998047 311.63085938 C-346.52324137 248.59820544 -320.63044887 189.96035275 -281 140 C-280.29617188 139.10152344 -279.59234375 138.20304688 -278.8671875 137.27734375 C-273.37004869 130.39070675 -267.41322535 123.99027622 -261.3671875 117.58984375 C-258.55820803 114.61207429 -255.82909862 111.57368996 -253.125 108.5 C-250.00637747 105.0151539 -246.7717567 101.89513946 -243.1953125 98.88671875 C-240.57033847 96.63073573 -238.07920318 94.25112439 -235.5625 91.875 C-228.83554967 85.63417905 -221.59473428 80.12031202 -214.23095703 74.65722656 C-212.76164594 73.56577508 -211.29635225 72.46889119 -209.83544922 71.36621094 C-173.90309933 44.24776398 -132.92974449 25.84545579 -90 13 C-89.0939502 12.72816895 -88.18790039 12.45633789 -87.25439453 12.17626953 C-59.41532071 4.03747761 -28.90740743 0 0 0 Z " fill="#1E1E1D" transform="translate(516,117)"/>
<path d="M0 0 C34.65 0 69.3 0 105 0 C105.99 8.91 105.99 8.91 107 18 C111.95176102 46.66809009 124.88679304 72.0402776 145 93 C145.80695313 93.87011719 146.61390625 94.74023438 147.4453125 95.63671875 C173.36436245 122.75500832 206.31712488 134.33171249 243 138 C243 172.65 243 207.3 243 243 C205.83540767 243 167.56589311 233.10756042 135 215 C134.67 214.67 134.34 214.34 134 214 C134.02326046 212.00594429 134.05267994 210.01173382 134.11621094 208.01855469 C134.35268876 199.87140764 134.14989539 193.24790757 130 186 C129.4225 184.948125 128.845 183.89625 128.25 182.8125 C122.1516626 175.18957825 114.67332929 169.93466586 105 168 C96.53932799 167.17743467 90.20213045 168.17263642 82.55859375 171.90625 C80 173 80 173 76 173 C73.93325399 171.28618602 72.15113953 169.62109964 70.3125 167.6875 C69.78285645 167.14279053 69.25321289 166.59808105 68.70751953 166.03686523 C63.81805783 160.94299953 59.34048788 155.56748092 55 150 C54.18789063 148.98164062 53.37578125 147.96328125 52.5390625 146.9140625 C25.14143634 112.29429096 8.52201366 70.74822528 1.75 27.3125 C1.57428467 26.20777344 1.39856934 25.10304688 1.2175293 23.96484375 C0.00907622 15.73832541 0 8.50361428 0 0 Z " fill="#1E1E1E" transform="translate(273,493)"/>
<path d="M0 0 C34.65 0 69.3 0 105 0 C101.49499556 49.07006221 89.0401527 95.50739271 60 136 C58.99259766 137.41732422 58.99259766 137.41732422 57.96484375 138.86328125 C43.13274642 159.186754 25.41876454 178.24166241 5 193 C4.3591748 193.47453613 3.71834961 193.94907227 3.05810547 194.43798828 C-34.73351377 222.41596271 -76.98101481 237.12854897 -123.390625 242.484375 C-124.25719727 242.58459961 -125.12376953 242.68482422 -126.01660156 242.78808594 C-130.00165177 243.07114842 -134.00490932 243 -138 243 C-138 208.35 -138 173.7 -138 138 C-130.08 137.01 -122.16 136.02 -114 135 C-104.14946725 132.53736681 -95.26853729 129.56249676 -86.17382812 125.14746094 C-81.55190636 122.96128714 -81.55190636 122.96128714 -78.828125 123.15234375 C-76.67055566 124.15275518 -74.6168347 125.2376546 -72.5625 126.4375 C-64.20539095 131.3064244 -56.84719486 132.15576764 -47.24609375 130.53515625 C-37.55778685 127.97283408 -30.10617879 122.62928694 -25 114 C-20.26824891 105.80419438 -20.03210038 97.19504642 -21 88 C-21.82876889 85.15646537 -22.79552008 82.65611984 -24.125 80.015625 C-25 78 -25 78 -25 74 C-23.49609375 71.29296875 -23.49609375 71.29296875 -21.4375 68.1875 C-8.00556339 47.15489254 -2.46102779 24.61027792 0 0 Z " fill="#1D1E1D" transform="translate(670,493)"/>
<path d="M0 0 C0 34.65 0 69.3 0 105 C-10.395 105.99 -10.395 105.99 -21 107 C-24.74006764 107.76308073 -28.10081957 108.49151874 -31.6875 109.625 C-32.54432373 109.88442383 -33.40114746 110.14384766 -34.28393555 110.41113281 C-72.62920269 122.45572904 -102.5135556 148.36139086 -121.84375 183.3359375 C-126.49900047 192.25850089 -129.96460987 201.41954989 -133 211 C-133.47953125 212.50626953 -133.47953125 212.50626953 -133.96875 214.04296875 C-136.6878252 223.68209032 -136.97541839 232.75418394 -138 243 C-172.65 243 -207.3 243 -243 243 C-243 207.55197437 -233.54439141 172.70229224 -218 141 C-217.61086426 140.20255371 -217.22172852 139.40510742 -216.82080078 138.58349609 C-206.54617709 117.76065161 -193.46396832 98.66261924 -177.54296875 81.75390625 C-174.91785384 78.91103988 -172.45353047 75.99092852 -170 73 C-167.83899818 74.07799395 -165.68119281 75.16167 -163.52734375 76.25390625 C-162.67269531 76.68574219 -161.81804687 77.11757813 -160.9375 77.5625 C-160.08027344 77.99691406 -159.22304688 78.43132812 -158.33984375 78.87890625 C-149.59514207 83.06877166 -135.85563698 82.48398147 -126.8125 79.375 C-124.3190876 78.29480439 -124.3190876 78.29480439 -122 77 C-120.78957031 76.34644531 -120.78957031 76.34644531 -119.5546875 75.6796875 C-110.46887907 70.19221904 -105.24751987 61.64658012 -101.90234375 51.75390625 C-100.94332554 47.76422442 -100.73839911 44.07164867 -100.8125 40 C-100.81314453 39.32710938 -100.81378906 38.65421875 -100.81445312 37.9609375 C-100.85283321 33.54296358 -101.29243991 29.34724921 -102 25 C-69.76901278 9.28340475 -36.04431928 0 0 0 Z " fill="#1E1E1D" transform="translate(516,235)"/>
<path d="M0 0 C26.76800228 0 26.76800228 0 35.875 1.1875 C37.47734497 1.38496826 37.47734497 1.38496826 39.11206055 1.58642578 C50.86371073 3.11516579 62.43494306 5.44083397 74 8 C74.9374707 8.20383301 75.87494141 8.40766602 76.84082031 8.61767578 C98.10227972 13.27684596 117.92729096 20.63745671 138 29 C138.89009766 29.36996094 139.78019531 29.73992187 140.69726562 30.12109375 C166.440814 40.94170762 191.11780657 55.63726613 213 73 C213.6182666 73.48968262 214.2365332 73.97936523 214.87353516 74.48388672 C222.66968376 80.67899007 230.29509631 86.99039989 237.58203125 93.78125 C240.49912516 96.45800177 243.54203104 98.96137947 246.63671875 101.4296875 C248 103 248 103 248 107 C246.90678406 108.58540726 246.90678406 108.58540726 245.3425293 110.13848877 C244.75353851 110.73297821 244.16454773 111.32746765 243.55770874 111.93997192 C242.90315704 112.58014252 242.24860535 113.22031311 241.57421875 113.87988281 C240.89146881 114.56321686 240.20871887 115.2465509 239.50527954 115.95059204 C237.24203698 118.2110438 234.96494691 120.45699243 232.6875 122.703125 C231.1172136 124.26595261 229.54780695 125.82966463 227.97924805 127.39422607 C223.84514679 131.51304273 219.69917473 135.61970775 215.55065918 139.72399902 C211.32084159 143.91292534 207.10230162 148.11317457 202.8828125 152.3125 C194.59957159 160.55282009 186.30375231 168.78035322 178 177 C176.89346555 176.05301496 175.78714315 175.10578215 174.6809082 174.15844727 C174.06480179 173.63098404 173.44869537 173.10352081 172.81391907 172.56007385 C171.23688134 171.20373146 169.6702306 169.83533017 168.10546875 168.46484375 C153.80602697 156.0796512 138.37620167 145.44866173 122 136 C121.00661621 135.42088867 121.00661621 135.42088867 119.99316406 134.83007812 C101.77363597 124.32266412 81.47159063 115.87205162 61 111 C59.28031006 110.58258545 59.28031006 110.58258545 57.52587891 110.15673828 C54.11950872 109.33717153 50.70597456 108.55329885 47.28741455 107.78625488 C45.29908763 107.33767492 43.31421245 106.87387426 41.32958984 106.40917969 C27.3780607 103.39569053 14.69834475 103.04988177 0 102 C0 68.34 0 34.68 0 0 Z " fill="#1D1D1D" transform="translate(532,118)"/>
<path d="M0 0 C2.29689409 1.17428123 3.46769675 2.41384059 5.09765625 4.4140625 C7.66707896 7.49954263 10.29563959 10.47850703 13.03515625 13.4140625 C19.47321866 20.55406016 25.17565691 28.26998557 30.91015625 35.9765625 C31.36567871 36.5854834 31.82120117 37.1944043 32.29052734 37.82177734 C39.48283344 47.47970525 45.7921973 57.61117702 51.91015625 67.9765625 C52.29526367 68.62286621 52.68037109 69.26916992 53.07714844 69.93505859 C78.8117296 113.32951341 93.44119249 161.94412614 99.78515625 211.7890625 C99.8947467 212.63428467 100.00433716 213.47950684 100.11724854 214.3503418 C100.43247133 216.81429835 100.73264363 219.27960576 101.02734375 221.74609375 C101.11763855 222.45474075 101.20793335 223.16338776 101.30096436 223.89350891 C102.1513532 231.35238772 101.91015625 238.30534806 101.91015625 245.9765625 C68.25015625 245.9765625 34.59015625 245.9765625 -0.08984375 245.9765625 C-1.57484375 230.1365625 -1.57484375 230.1365625 -3.08984375 213.9765625 C-4.62875405 205.48085164 -4.62875405 205.48085164 -6.54833984 197.11132812 C-7.10400846 194.92072108 -7.62313953 192.72334801 -8.140625 190.5234375 C-18.35342907 148.31051402 -38.46178016 109.83454198 -67.34570312 77.40307617 C-69.53287687 74.92770751 -71.03287317 73.14747425 -72.08984375 69.9765625 C-68.5562832 66.38464958 -64.90091574 62.96866112 -61.15234375 59.6015625 C-57.79708476 56.56502502 -54.54643005 53.52854676 -51.65234375 50.0390625 C-49.29213774 47.21832849 -46.98823359 45.20609315 -44.08984375 42.9765625 C-40.05176983 39.15676284 -36.46325187 34.99357814 -32.859375 30.76953125 C-32.27542969 30.17785156 -31.69148437 29.58617187 -31.08984375 28.9765625 C-30.42984375 28.9765625 -29.76984375 28.9765625 -29.08984375 28.9765625 C-28.88359375 28.44546875 -28.67734375 27.914375 -28.46484375 27.3671875 C-26.51023183 23.96882814 -23.86860658 21.46600322 -21.08984375 18.7265625 C-20.54328125 18.17226562 -19.99671875 17.61796875 -19.43359375 17.046875 C-15.34323045 12.9765625 -15.34323045 12.9765625 -13.08984375 12.9765625 C-12.85007812 12.41582031 -12.6103125 11.85507813 -12.36328125 11.27734375 C-10.81409976 8.47836246 -8.9440869 6.4562577 -6.71484375 4.1640625 C-5.55855469 2.94783203 -5.55855469 2.94783203 -4.37890625 1.70703125 C-2.08984375 -0.0234375 -2.08984375 -0.0234375 0 0 Z " fill="#1E1E1D" transform="translate(790.08984375,232.0234375)"/>
<path d="M0 0 C21.95754717 0 21.95754717 0 29 1.25 C30.23532471 1.45568604 30.23532471 1.45568604 31.49560547 1.66552734 C34.00061882 2.09234988 36.49994363 2.54517167 39 3 C39.7621582 3.12858398 40.52431641 3.25716797 41.30957031 3.38964844 C69.47069075 8.17034836 97.89878202 19.71339552 122 35 C123.03882324 35.65887207 123.03882324 35.65887207 124.09863281 36.33105469 C139.20420657 46.0020267 152.98207238 56.67350077 166 69 C164.70005304 71.86356097 163.32621927 73.92226181 161.10202026 76.13848877 C160.51028015 76.73297821 159.91854004 77.32746765 159.30886841 77.93997192 C158.66150726 78.58014252 158.01414612 79.22031311 157.34716797 79.87988281 C156.66412598 80.56321686 155.98108398 81.2465509 155.27734375 81.95059204 C153.02033362 84.20620976 150.7563237 86.45466222 148.4921875 88.703125 C146.92519314 90.26638892 145.35864001 91.83009523 143.79251099 93.39422607 C139.67051858 97.50858445 135.54255516 101.6169012 131.41333008 105.72399902 C127.20032416 109.91654166 122.99297842 114.11475588 118.78515625 118.3125 C110.5289751 126.54723528 102.26647643 134.77560065 94 143 C90.29428073 141.59771264 87.96062562 140.27868534 85.125 137.5 C61.82987999 116.31216881 30.80392433 106.36953264 0 104 C0 69.68 0 35.36 0 0 Z " fill="#1D1E1D" transform="translate(532,236)"/>
<path d="M0 0 C3.84377989 0.34326063 5.48927593 2.28758473 7.95703125 5.14868164 C8.68986328 6.03414673 8.68986328 6.03414673 9.4375 6.9375 C10.21867188 7.87033813 10.21867188 7.87033813 11.015625 8.82202148 C42.08782333 46.46183691 60.84579406 90.90371911 68 139 C68.10892578 139.70995117 68.21785156 140.41990234 68.33007812 141.15136719 C69.31613862 148.53302985 69 155.36723791 69 163 C34.68 163 0.36 163 -35 163 C-35.99 156.07 -36.98 149.14 -38 142 C-43.36100818 118.41156401 -52.50312509 96.43504408 -68.44140625 77.9453125 C-69.97177863 76.03522367 -70.94458842 74.19646652 -72 72 C-18 18 -18 18 -15.26080322 15.26576233 C-13.41244585 13.41335056 -11.5999672 11.53982454 -9.80859375 9.6328125 C-8.68505523 8.46338851 -7.56135513 7.29411972 -6.4375 6.125 C-5.87353516 5.51914062 -5.30957031 4.91328125 -4.72851562 4.2890625 C-3.05859375 2.5703125 -3.05859375 2.5703125 0 0 Z " fill="#1E1E1E" transform="translate(705,315)"/>
<path d="M0 0 C29.37 0 58.74 0 89 0 C90.32 3.96 91.64 7.92 93 12 C98.48828748 22.22163586 107.12412241 29.16145497 118 33 C119.65 33.33 121.3 33.66 123 34 C123 63.37 123 92.74 123 123 C90.25984048 123 59.8718007 106.81156007 36.875 84.375 C14.12001899 61.49039176 2.45031578 31.85410516 0 0 Z " fill="#1E1E1E" transform="translate(393,493)"/>
<path d="M0 0 C0 29.37 0 58.74 0 89 C-3.3 89.99 -6.6 90.98 -10 92 C-20.39967507 97.23746299 -27.3254268 105.46411985 -32 116 C-32.66 118.31 -33.32 120.62 -34 123 C-63.37 123 -92.74 123 -123 123 C-123 89.54705626 -105.33511356 58.39380076 -82.29296875 35.28515625 C-60.66287159 14.35043048 -30.31517604 0 0 0 Z " fill="#1E1E1E" transform="translate(516,355)"/>
<path d="M0 0 C29.37 0 58.74 0 89 0 C88.30488244 8.34141072 87.41970787 15.75173841 85.375 23.75 C84.97740479 25.3119812 84.97740479 25.3119812 84.57177734 26.90551758 C80.85488983 40.9354134 74.96459288 52.91864353 67 65 C66.45835205 64.78996338 65.9167041 64.57992676 65.35864258 64.36352539 C55.81736134 60.89182917 45.15189483 60.1445622 35.34765625 63.1015625 C25.23279159 67.87200309 19.04476211 74.60395853 15 85 C13.94511325 89.00197661 13.86603311 92.80824907 13.875 96.9375 C13.87242187 98.12214844 13.86984375 99.30679688 13.8671875 100.52734375 C13.9914085 103.77535743 14.38674303 106.81203717 15 110 C0.59041511 118.36963913 -17.33001881 123 -34 123 C-34 93.63 -34 64.26 -34 34 C-31.03 33.01 -28.06 32.02 -25 31 C-13.15718504 25.51875324 -6.66720288 16.9393562 -2 5 C-1.34 3.35 -0.68 1.7 0 0 Z " fill="#1E1E1D" transform="translate(566,493)"/>
<path d="M0 0 C30.41414724 0 59.07197209 14.64212718 81 35 C79.37641304 39.09620634 76.43319604 41.83447899 73.35693359 44.87011719 C72.78118088 45.44616196 72.20542816 46.02220673 71.61222839 46.6157074 C69.71233463 48.51421037 67.80546009 50.40553522 65.8984375 52.296875 C64.57806566 53.61351582 63.25813536 54.93059957 61.93862915 56.24810791 C58.46765724 59.71145037 54.9907207 63.16874418 51.51251221 66.62481689 C47.96305615 70.1537998 44.41926799 73.6884642 40.875 77.22265625 C33.92220537 84.15401308 26.96309691 91.07899377 20 98 C17.70212008 96.85383377 15.41054809 95.69806607 13.125 94.52734375 C12.09375 94.00269531 11.0625 93.47804688 10 92.9375 C8.96875 92.41027344 7.9375 91.88304687 6.875 91.33984375 C3.88999612 89.83793965 3.88999612 89.83793965 0 89 C0 59.63 0 30.26 0 0 Z " fill="#1D1D1D" transform="translate(532,355)"/>
<path d="M0 0 C1.2175293 1.37011719 1.2175293 1.37011719 2.57421875 3.296875 C3.32300293 4.35406738 3.32300293 4.35406738 4.08691406 5.43261719 C4.61510742 6.19735352 5.14330078 6.96208984 5.6875 7.75 C6.22987305 8.5327832 6.77224609 9.31556641 7.33105469 10.12207031 C8.90039143 12.40619163 10.4537236 14.70022149 12 17 C13.02287109 18.5159375 13.02287109 18.5159375 14.06640625 20.0625 C25.27949882 37.96182178 29.56901144 58.33659726 32 79 C2.3 79 -27.4 79 -58 79 C-58.99 75.7 -59.98 72.4 -61 69 C-61.96119395 66.65041479 -62.94574256 64.30932581 -64 62 C-55.95660807 53.91035335 -47.90788635 45.82605216 -39.85223579 37.74861145 C-36.11220977 33.99812949 -32.37407446 30.24580203 -28.64013672 26.48925781 C-25.03945453 22.86691172 -21.43396828 19.24941331 -17.82503891 15.63528442 C-16.44612764 14.25266577 -15.06898349 12.8682825 -13.69360733 11.48214722 C-11.7731467 9.54725748 -9.84660883 7.61862729 -7.91845703 5.69140625 C-7.05962418 4.82178757 -7.05962418 4.82178757 -6.18344116 3.93460083 C-2.22810432 0 -2.22810432 0 0 0 Z " fill="#1E1E1D" transform="translate(623,399)"/>
<path d="M0 0 C7.94837083 5.65673129 13.43447027 12.53752669 16 22 C17.40233261 33.43191265 16.6435218 43.29759047 10 53 C9.61714844 53.60972656 9.23429687 54.21945312 8.83984375 54.84765625 C4.37861418 61.09977367 -3.75517034 65.0525612 -11 67 C-23.83203591 68.15434633 -33.8359496 66.35627312 -43.9609375 57.984375 C-47.33424865 54.70153579 -49.74755664 51.11504075 -52 47 C-52.3403125 46.40960938 -52.680625 45.81921875 -53.03125 45.2109375 C-56.51871374 37.88080538 -56.07683118 27.82651119 -54.34375 20.05859375 C-50.80915614 10.32322531 -44.18964716 2.72350892 -35 -2 C-23.26454342 -7.17222126 -11.05240775 -6.38411804 0 0 Z " fill="#FB704B" transform="translate(393,244)"/>
<path d="M0 0 C6.76493301 5.64943873 10.47110637 12.51719111 11.5234375 21.19140625 C11.88832427 29.48556318 9.40351318 36.64424702 4.48828125 43.3359375 C-1.77800187 50.17419373 -8.47808234 52.97147427 -17.70336914 53.45678711 C-27.46423014 53.65677234 -33.42454875 51.16312341 -40.5625 44.625 C-45.0086489 40.26667627 -47.8655462 34.72331034 -48.28125 28.5 C-48.29170246 26.97916691 -48.28113755 25.45805023 -48.25 23.9375 C-48.26546875 23.18210937 -48.2809375 22.42671875 -48.296875 21.6484375 C-48.24852087 14.61291183 -45.96089658 9.43184486 -41.3125 4.1875 C-28.83722121 -6.76640333 -14.30121687 -10.19111925 0 0 Z " fill="#FC704B" transform="translate(390.75,672.0625)"/>
<path d="M0 0 C6.29218983 4.7134222 11.17030961 10.92058027 13.1484375 18.609375 C14.13138099 27.60107395 13.70150175 35.93356982 8.12109375 43.27734375 C1.83776171 50.52251697 -3.92547301 54.75616108 -13.546875 55.94140625 C-22.70480741 56.45549384 -30.17757019 53.78613409 -37.0546875 47.640625 C-43.98676408 40.06776824 -46.25119071 32.57165433 -46.12890625 22.44921875 C-45.40116923 14.99760162 -41.06870495 7.87238244 -35.8515625 2.609375 C-25.48894509 -4.65346816 -11.21167932 -6.63016252 0 0 Z " fill="#FA714C" transform="translate(630.8515625,563.390625)"/>
<path d="M0 0 C7.40214477 4.59583714 12.23401741 9.87596158 14.71484375 18.30078125 C16.36534189 26.29104329 15.02009847 33.89559966 10.57421875 40.71484375 C5.08667134 47.60565172 -1.63112252 51.19588389 -10.28515625 52.76171875 C-17.48682897 53.1696011 -24.59765357 50.34257135 -30.2421875 45.94921875 C-36.27985615 39.9115501 -39.14760957 34.0862321 -39.2421875 25.57421875 C-39.07809309 16.8407498 -37.07816125 11.42822213 -31.1796875 5.01171875 C-22.26691668 -3.22683878 -11.08955516 -5.66402011 0 0 Z " fill="#1F1F1E" transform="translate(535.8671875,460.67578125)"/>
<path d="M0 0 C0.98355469 0.01417969 1.96710938 0.02835938 2.98046875 0.04296875 C10.06502824 0.18834275 10.06502824 0.18834275 13.625 1.375 C13.625 2.035 13.625 2.695 13.625 3.375 C14.676875 3.5296875 14.676875 3.5296875 15.75 3.6875 C22.16306453 5.22105891 28.29479368 8.66146485 31.85546875 14.3359375 C34.7797383 20.01556572 35.77622551 24.57216021 35.8125 31 C35.82667969 32.14726563 35.84085937 33.29453125 35.85546875 34.4765625 C35.625 37.375 35.625 37.375 33.625 39.375 C33.13 33.435 33.13 33.435 32.625 27.375 C32.62242187 28.4371875 32.61984375 29.499375 32.6171875 30.59375 C32.33930894 44.18731217 32.33930894 44.18731217 27.29296875 50.08984375 C25.41783637 51.53461788 23.94050274 51.97820018 21.625 52.375 C20.93340599 54.22225052 20.93340599 54.22225052 20.625 56.375 C21.285 57.365 21.945 58.355 22.625 59.375 C21.44509775 60.17794647 20.25554311 60.96671174 19.0625 61.75 C18.07056641 62.41128906 18.07056641 62.41128906 17.05859375 63.0859375 C8.07230115 67.84593198 -4.31831532 68.22492217 -13.96875 65.27734375 C-25.71835263 59.71408493 -31.083942 51.83772056 -35.6875 40 C-36.67628927 34.78638382 -36.53133884 29.66446408 -36.375 24.375 C-35.715 24.375 -35.055 24.375 -34.375 24.375 C-34.375 28.995 -34.375 33.615 -34.375 38.375 C-33.715 38.375 -33.055 38.375 -32.375 38.375 C-32.44460938 37.43140625 -32.51421875 36.4878125 -32.5859375 35.515625 C-33.04894967 24.53562206 -30.53406074 17.61359111 -24.375 8.375 C-23.385 8.045 -22.395 7.715 -21.375 7.375 C-21.045 6.715 -20.715 6.055 -20.375 5.375 C-13.8641995 0.3903174 -7.9903296 -0.31103296 0 0 Z M-24.375 13.375 C-30.34817978 21.67108303 -30.41786477 30.45288664 -29.375 40.375 C-28.30210973 43.99780884 -26.80989968 46.50968876 -24.375 49.375 C-23.57835937 50.33792969 -23.57835937 50.33792969 -22.765625 51.3203125 C-17.77396295 56.79282273 -13.11374111 59.99365627 -5.66015625 60.75390625 C4.62806284 61.21603643 13.05658989 59.89325019 20.9375 52.875 C26.43891073 46.87143211 29.81970086 39.36697269 30.125 31.1875 C29.60605978 22.65229903 26.58766419 15.5320989 20.625 9.375 C13.73398607 3.61972725 6.81267237 0.85252439 -2.30078125 1.12109375 C-11.31036581 2.22396192 -18.34980227 6.71557093 -24.375 13.375 Z " fill="#E8D0C3" transform="translate(372.375,664.625)"/>
<path d="M0 0 C1.40234375 1.35546875 1.40234375 1.35546875 2.46484375 5.10546875 C2.44421875 6.17796875 2.42359375 7.25046875 2.40234375 8.35546875 C3.14484375 8.33484375 3.88734375 8.31421875 4.65234375 8.29296875 C8.02019322 9.59418332 8.28219554 10.47901628 9.77734375 13.66796875 C11.22555092 17.01211126 11.62482264 18.88648644 10.40234375 22.35546875 C10.12261719 21.77539062 9.84289062 21.1953125 9.5546875 20.59765625 C5.95200916 13.57764636 1.31505987 7.70941591 -6.328125 4.828125 C-17.31557797 2.53986027 -27.01681175 4.26072106 -36.41015625 10.10546875 C-42.35244738 16.21753962 -45.62568055 23.13369768 -45.91015625 31.66796875 C-45.70599101 40.531142 -42.98077524 48.05180767 -36.59765625 54.35546875 C-30.4186034 58.78282749 -25.27420616 61.49928382 -17.59765625 61.48046875 C-16.54578125 61.48304688 -15.49390625 61.485625 -14.41015625 61.48828125 C-11.51638747 61.4790051 -11.51638747 61.4790051 -8.59765625 60.35546875 C-6.264658 60.31592641 -3.93057436 60.31145143 -1.59765625 60.35546875 C-1.59765625 61.01546875 -1.59765625 61.67546875 -1.59765625 62.35546875 C-9.95771509 64.74405699 -17.98500781 64.54568675 -26.59765625 64.35546875 C-26.92765625 63.36546875 -27.25765625 62.37546875 -27.59765625 61.35546875 C-29.59558241 60.4031127 -29.59558241 60.4031127 -31.97265625 59.79296875 C-38.60822421 57.88010958 -38.60822421 57.88010958 -40.6953125 54.6640625 C-41.01371094 54.04660156 -41.33210937 53.42914062 -41.66015625 52.79296875 C-43.19242246 49.32492127 -43.19242246 49.32492127 -45.59765625 48.35546875 C-47.52369442 43.79671654 -47.99517729 39.37126635 -48.22265625 34.48046875 C-48.26132812 33.79210937 -48.3 33.10375 -48.33984375 32.39453125 C-48.43313791 30.71523629 -48.51643863 29.03539108 -48.59765625 27.35546875 C-49.25765625 27.35546875 -49.91765625 27.35546875 -50.59765625 27.35546875 C-50.41203125 28.01546875 -50.22640625 28.67546875 -50.03515625 29.35546875 C-49.46738317 33.24876989 -50.00483918 36.46922354 -50.59765625 40.35546875 C-51.25765625 40.35546875 -51.91765625 40.35546875 -52.59765625 40.35546875 C-53.08902197 27.72554993 -52.39571936 17.92983155 -43.59765625 8.35546875 C-32.7554752 -2.82981929 -14.57001681 -7.99187061 0 0 Z " fill="#E0DAD2" transform="translate(631.59765625,556.64453125)"/>
<path d="M0 0 C0 0.66 0 1.32 0 2 C1.32 2 2.64 2 4 2 C4 2.66 4 3.32 4 4 C5.1446875 4.1546875 5.1446875 4.1546875 6.3125 4.3125 C9.36053239 5.09222922 10.0208205 5.63005941 12 8 C13.07879635 9.92701027 14.09471031 11.88991732 15.0625 13.875 C15.56910156 14.90367187 16.07570313 15.93234375 16.59765625 16.9921875 C17.06042969 17.98476563 17.52320313 18.97734375 18 20 C18.38671875 20.76054687 18.7734375 21.52109375 19.171875 22.3046875 C20.39545502 26.28709418 20.24905289 30.10975837 20.1875 34.25 C20.1865332 35.46236328 20.1865332 35.46236328 20.18554688 36.69921875 C20.08096755 51.22412474 20.08096755 51.22412474 17.25 55.875 C14.94703604 58.05002152 12.7329074 59.41110035 10 61 C8.81597675 61.95810617 7.65042461 62.93930077 6.5 63.9375 C5.901875 64.45570313 5.30375 64.97390625 4.6875 65.5078125 C3.2746905 66.75710239 1.88446482 68.03187004 0.5 69.3125 C-4.72150136 72.83701342 -11.80065229 72.2085698 -17.9375 72.25 C-18.69740234 72.270625 -19.45730469 72.29125 -20.24023438 72.3125 C-28.85606967 72.37136139 -36.26732992 69.46605079 -42.625 63.5625 C-48 57.76315789 -48 57.76315789 -48 55 C-48.66 55 -49.32 55 -50 55 C-51.49821059 51.62902617 -52 49.79557881 -52 46 C-52.66 46 -53.32 46 -54 46 C-54.22666276 42.27171115 -54.42809699 38.54246959 -54.625 34.8125 C-54.68945312 33.75740234 -54.75390625 32.70230469 -54.8203125 31.61523438 C-54.871875 30.59365234 -54.9234375 29.57207031 -54.9765625 28.51953125 C-55.05511475 27.11344604 -55.05511475 27.11344604 -55.13525391 25.67895508 C-54.98672793 22.73712195 -54.23448557 20.65646126 -53 18 C-52.34 18 -51.68 18 -51 18 C-50.92394531 17.45601563 -50.84789062 16.91203125 -50.76953125 16.3515625 C-49.70683449 13.10413382 -47.85367699 11.00561101 -45.6875 8.375 C-44.90761719 7.41335937 -44.12773437 6.45171875 -43.32421875 5.4609375 C-41.17474084 3.18501971 -39.8362759 2.15383569 -37 1 C-36.36320312 0.65839844 -35.72640625 0.31679687 -35.0703125 -0.03515625 C-34.42835938 -0.37417969 -33.78640625 -0.71320313 -33.125 -1.0625 C-32.48820312 -1.40410156 -31.85140625 -1.74570313 -31.1953125 -2.09765625 C-21.10249654 -6.24612687 -9.482193 -4.79460775 0 0 Z M-39 5 C-39.804375 5.59167969 -40.60875 6.18335938 -41.4375 6.79296875 C-44.149019 9.12834716 -45.79976442 11.34613886 -47.6875 14.375 C-48.26886719 15.29023438 -48.85023438 16.20546875 -49.44921875 17.1484375 C-54.15687534 25.80483375 -54.53839949 35.97002344 -52.125 45.4296875 C-47.95796432 56.20366791 -41.35032889 62.97681102 -31 68 C-21.96124322 71.62796996 -11.38162198 71.39263224 -2.375 67.8125 C7.31009368 63.11392077 13.27312457 55.95068389 17.40014648 45.98095703 C18.53222115 42.24239216 18.48599606 38.50352976 18.4375 34.625 C18.42992676 33.78155029 18.42235352 32.93810059 18.41455078 32.0690918 C18.25201048 25.95010191 17.50821211 21.14247241 14 16 C13.56429687 15.3090625 13.12859375 14.618125 12.6796875 13.90625 C7.20549207 5.88939549 -0.54881676 0.35946323 -10 -2 C-20.66635802 -3.16765789 -30.37793493 -1.61693366 -39 5 Z " fill="#F7D1C0" transform="translate(391,241)"/>
<path d="M0 0 C6.29218983 4.7134222 11.17030961 10.92058027 13.1484375 18.609375 C14.13138099 27.60107395 13.70150175 35.93356982 8.12109375 43.27734375 C1.83776171 50.52251697 -3.92547301 54.75616108 -13.546875 55.94140625 C-21.78320344 56.40375889 -28.0084415 54.19003091 -34.8515625 49.609375 C-35.5115625 48.619375 -36.1715625 47.629375 -36.8515625 46.609375 C-28.48893066 49.22966631 -28.48893066 49.22966631 -24.9140625 51.359375 C-20.47661951 53.17057622 -16.4792956 52.62503259 -11.8515625 51.609375 C-9.6205749 50.63049502 -9.6205749 50.63049502 -7.8515625 49.609375 C-7.3565625 50.104375 -7.3565625 50.104375 -6.8515625 50.609375 C-4.32764351 50.35461694 -4.32764351 50.35461694 -1.8515625 49.609375 C-1.3565625 48.619375 -1.3565625 48.619375 -0.8515625 47.609375 C0.1384375 47.609375 1.1284375 47.609375 2.1484375 47.609375 C2.1484375 46.619375 2.1484375 45.629375 2.1484375 44.609375 C2.8084375 44.609375 3.4684375 44.609375 4.1484375 44.609375 C9.25804214 32.81797967 10.90927817 23.2916635 6.4140625 11.0546875 C5.02076368 8.36269657 3.30913698 6.70652449 1.1484375 4.609375 C1.1484375 3.949375 1.1484375 3.289375 1.1484375 2.609375 C-6.40172683 1.00782499 -13.59539499 0.47486803 -21.2890625 0.546875 C-22.21138672 0.55138672 -23.13371094 0.55589844 -24.08398438 0.56054688 C-26.33991298 0.57223562 -28.59570217 0.58862045 -30.8515625 0.609375 C-22.67261801 -6.10904369 -8.79694307 -5.20217896 0 0 Z " fill="#E27F62" transform="translate(630.8515625,563.390625)"/>
<path d="M0 0 C7.96657389 -0.20551101 14.32107171 1.89263997 21.51171875 5.12109375 C21.51171875 5.78109375 21.51171875 6.44109375 21.51171875 7.12109375 C22.25421875 7.10046875 22.99671875 7.07984375 23.76171875 7.05859375 C27.12956822 8.35980832 27.39157054 9.24464128 28.88671875 12.43359375 C30.33492592 15.77773626 30.73419764 17.65211144 29.51171875 21.12109375 C29.23199219 20.54101562 28.95226562 19.9609375 28.6640625 19.36328125 C25.06138416 12.34327136 20.42443487 6.47504091 12.78125 3.59375 C1.79379703 1.30548527 -7.90743675 3.02634606 -17.30078125 8.87109375 C-23.24307238 14.98316462 -26.51630555 21.89932268 -26.80078125 30.43359375 C-26.59661601 39.296767 -23.87140024 46.81743267 -17.48828125 53.12109375 C-11.3092284 57.54845249 -6.16483116 60.26490882 1.51171875 60.24609375 C2.56359375 60.24867188 3.61546875 60.25125 4.69921875 60.25390625 C7.59298753 60.2446301 7.59298753 60.2446301 10.51171875 59.12109375 C12.844717 59.08155141 15.17880064 59.07707643 17.51171875 59.12109375 C17.51171875 59.78109375 17.51171875 60.44109375 17.51171875 61.12109375 C9.15165991 63.50968199 1.12436719 63.31131175 -7.48828125 63.12109375 C-7.81828125 62.13109375 -8.14828125 61.14109375 -8.48828125 60.12109375 C-10.48620741 59.1687377 -10.48620741 59.1687377 -12.86328125 58.55859375 C-19.49884921 56.64573458 -19.49884921 56.64573458 -21.5859375 53.4296875 C-21.90433594 52.81222656 -22.22273437 52.19476562 -22.55078125 51.55859375 C-24.08304746 48.09054627 -24.08304746 48.09054627 -26.48828125 47.12109375 C-28.83110631 41.9422173 -28.75707275 37.05814376 -28.67578125 31.49609375 C-28.67481445 30.22765625 -28.67481445 30.22765625 -28.67382812 28.93359375 C-28.64691382 25.1416676 -28.52659393 21.78859022 -27.48828125 18.12109375 C-26.82828125 18.12109375 -26.16828125 18.12109375 -25.48828125 18.12109375 C-25.30265625 17.08984375 -25.11703125 16.05859375 -24.92578125 14.99609375 C-23.55811004 10.19469483 -20.39885055 7.96963475 -16.48828125 5.12109375 C-15.51890625 4.35796875 -14.54953125 3.59484375 -13.55078125 2.80859375 C-9.07440557 0.34201939 -4.96387874 0.24157024 0 0 Z " fill="#F9D0BF" transform="translate(612.48828125,557.87890625)"/>
<path d="M0 0 C0.98355469 0.01417969 1.96710938 0.02835938 2.98046875 0.04296875 C10.06502824 0.18834275 10.06502824 0.18834275 13.625 1.375 C13.625 2.035 13.625 2.695 13.625 3.375 C16.1 3.87 16.1 3.87 18.625 4.375 C19.12 5.86 19.12 5.86 19.625 7.375 C20.285 7.375 20.945 7.375 21.625 7.375 C21.295 8.365 20.965 9.355 20.625 10.375 C20.068125 9.96507812 19.51125 9.55515625 18.9375 9.1328125 C11.61204505 3.96044735 4.82528272 1.24878837 -4.375 2.375 C-12.8617189 4.35571634 -20.6588177 8.54911439 -25.4621582 16.0793457 C-28.23674189 21.24100877 -29.05184605 25.48271579 -28.9375 31.3125 C-28.92654297 32.10374268 -28.91558594 32.89498535 -28.90429688 33.71020508 C-28.58192162 42.39553164 -25.7537309 47.37020732 -19.4375 53.25 C-13.77292381 58.06547134 -8.78738511 59.84792888 -1.375 59.625 C-0.34632813 59.61726562 -0.34632813 59.61726562 0.703125 59.609375 C4.76476846 59.54736518 8.63944005 59.14720224 12.625 58.375 C12.295 59.365 11.965 60.355 11.625 61.375 C8.00043986 61.52228458 4.37666479 61.60972226 0.75 61.6875 C-0.26320313 61.72939453 -1.27640625 61.77128906 -2.3203125 61.81445312 C-9.45257477 61.9287522 -15.63658359 60.92337707 -21.375 56.375 C-22.03076172 54.25512695 -22.03076172 54.25512695 -22.375 52.375 C-22.973125 52.106875 -23.57125 51.83875 -24.1875 51.5625 C-28.39776182 49.2769293 -29.91918417 44.51453958 -31.625 40.25 C-34.08738274 27.5276892 -31.47324229 19.02236344 -24.375 8.375 C-23.385 8.045 -22.395 7.715 -21.375 7.375 C-21.045 6.715 -20.715 6.055 -20.375 5.375 C-13.8641995 0.3903174 -7.9903296 -0.31103296 0 0 Z " fill="#F8D4C4" transform="translate(372.375,664.625)"/>
<path d="M0 0 C2.7866682 2.23325255 3.7896063 3.05631891 4.9375 6.5 C3 5.6875 3 5.6875 0.9375 4.5 C0.4425 3.015 0.4425 3.015 -0.0625 1.5 C-7.09489662 -2.32693212 -19.23328536 -4.1942636 -26.984375 -1.94140625 C-33.38206318 1.13440538 -39.8635116 5.99647177 -43.0390625 12.5 C-43.66297399 14.51850388 -43.66297399 14.51850388 -44.0625 17.5 C-44.32160156 18.42232422 -44.32160156 18.42232422 -44.5859375 19.36328125 C-45.94940818 25.47654734 -45.37522488 32.42864745 -44.0625 38.5 C-47.89083039 33.50652557 -48.30011012 30.11582302 -48.375 23.875 C-48.40400391 23.09253906 -48.43300781 22.31007813 -48.46289062 21.50390625 C-48.54097815 14.25978645 -46.4202614 9.1600385 -41.625 3.75 C-28.97175193 -7.36016904 -14.23915627 -10.69066812 0 0 Z " fill="#DF896C" transform="translate(391.0625,672.5)"/>
<path d="M0 0 C4.83029357 4.31614467 6.14422265 10.5101583 6.5 16.8125 C6.19470086 24.99197269 2.81391073 32.49643211 -2.6875 38.5 C-10.50496983 45.46175421 -18.98950911 46.92338262 -29.21875 46.4453125 C-37.3120264 45.49217871 -42.23847652 41.22323603 -47.78515625 35.55078125 C-49 34 -49 34 -49 32 C-48.01 32.33 -47.02 32.66 -46 33 C-46 33.66 -46 34.32 -46 35 C-44.35 35 -42.7 35 -41 35 C-41 35.99 -41 36.98 -41 38 C-40.4225 38.268125 -39.845 38.53625 -39.25 38.8125 C-37 40 -37 40 -35.453125 41.5546875 C-31.62314267 43.81120575 -27.85882629 43.39467998 -23.5 43.3125 C-22.64535156 43.31572266 -21.79070312 43.31894531 -20.91015625 43.32226562 C-15.18499193 43.27341005 -15.18499193 43.27341005 -10 41 C-8.96564444 39.35443434 -7.97236487 37.6829392 -7 36 C-5.99483244 34.84039968 -4.97265796 33.69540896 -3.9375 32.5625 C1.06240509 26.85716275 2.13593148 19.85305255 2.1875 12.4375 C2.20167969 11.50808594 2.21585937 10.57867188 2.23046875 9.62109375 C1.9907245 6.89451081 1.27331903 5.38055297 0 3 C0 2.01 0 1.02 0 0 Z " fill="#DC8468" transform="translate(396,679)"/>
<path d="M0 0 C0.33 0 0.66 0 1 0 C0.98839844 0.62648438 0.97679687 1.25296875 0.96484375 1.8984375 C0.95582031 2.71570313 0.94679688 3.53296875 0.9375 4.375 C0.92589844 5.18710937 0.91429687 5.99921875 0.90234375 6.8359375 C0.85533666 9.04937142 0.85533666 9.04937142 2 11 C-3.79001879 18.50282178 -10.19995535 23.71742014 -19.69140625 25.72265625 C-26.64762844 26.55834453 -33.55285086 27.01425155 -40 24 C-38.9765625 22.5078125 -38.9765625 22.5078125 -37 21 C-34.37660105 20.80545581 -31.98584067 20.76711402 -29.375 20.875 C-27.93497681 20.9074622 -26.49486289 20.9361294 -25.0546875 20.9609375 C-24.35956055 20.97350586 -23.66443359 20.98607422 -22.94824219 20.99902344 C-19.24632275 21.00087904 -15.65866508 20.52266644 -12 20 C-12 19.34 -12 18.68 -12 18 C-12.99 17.67 -13.98 17.34 -15 17 C-14.49210938 16.6596875 -13.98421875 16.319375 -13.4609375 15.96875 C-7.51895158 11.78487976 -2.34865333 7.04595998 0 0 Z " fill="#EFCFC0" transform="translate(642,599)"/>
<path d="M0 0 C0.33 0 0.66 0 1 0 C1.125 5.75 1.125 5.75 0 8 C-0.96873508 14.44900782 0.39938465 20.20143102 2.3125 26.3125 C2.52535645 26.99393066 2.73821289 27.67536133 2.95751953 28.37744141 C4.23473234 32.24521838 5.78229611 35.58958142 8 39 C8.33 39.66 8.66 40.32 9 41 C10.6635479 41.67441131 12.33066942 42.3400321 14 43 C16.3125 44.5 16.3125 44.5 18 46 C18 46.66 18 47.32 18 48 C18.53625 47.97679687 19.0725 47.95359375 19.625 47.9296875 C27.86197799 47.74002024 35.86219924 48.86918898 44 50 C38.68603766 53.54264156 31.23659365 52.60871396 25 52 C15.82954866 49.97959713 7.97092077 44.19952967 2.625 36.5625 C1.72005784 35.05929053 0.84245477 33.53910006 0 32 C-0.3403125 31.40960938 -0.680625 30.81921875 -1.03125 30.2109375 C-4.43606706 23.05451645 -4.15457813 12.77756466 -2.3203125 5.1875 C-1.5 3 -1.5 3 0 0 Z " fill="#E27F62" transform="translate(341,259)"/>
<path d="M0 0 C0.66 0 1.32 0 2 0 C2 4.62 2 9.24 2 14 C2.66 14 3.32 14 4 14 C4.33 13.34 4.66 12.68 5 12 C5.25523437 12.87011719 5.25523437 12.87011719 5.515625 13.7578125 C7.07867989 18.79617028 8.76087243 22.82048055 12 27 C12.66 27.33 13.32 27.66 14 28 C14.33 28.99 14.66 29.98 15 31 C16.98689731 32.35278115 18.98745218 33.68568305 21 35 C21.66 35.99 22.32 36.98 23 38 C26.55672179 39.2188121 26.55672179 39.2188121 30 40 C30 40.66 30 41.32 30 42 C21.25921298 41.61996578 14.54919944 36.97206422 8.625 30.75 C4.86211646 26.25734511 2.70468828 21.57635318 1 16 C0.8040625 15.37222656 0.608125 14.74445312 0.40625 14.09765625 C-0.13750111 11.29001832 -0.09355398 8.60696597 -0.0625 5.75 C-0.04896484 4.13351562 -0.04896484 4.13351562 -0.03515625 2.484375 C-0.02355469 1.66453125 -0.01195312 0.8446875 0 0 Z M30 39 C32 40 32 40 32 40 Z " fill="#D8D3CC" transform="translate(336,689)"/>
<path d="M0 0 C0 2 0 2 -1.89453125 4.01171875 C-2.35166504 4.4504834 -2.80879883 4.88924805 -3.27978516 5.34130859 C-5.41852844 7.40355978 -7.49326736 9.52399083 -9.57421875 11.64453125 C-11.27851876 13.36731322 -12.98294928 15.08996608 -14.6875 16.8125 C-15.55439453 17.69615234 -16.42128906 18.57980469 -17.31445312 19.49023438 C-18.14267578 20.32490234 -18.97089844 21.15957031 -19.82421875 22.01953125 C-20.57791748 22.78370361 -21.33161621 23.54787598 -22.1081543 24.33520508 C-24 26 -24 26 -26 26 C-26.22510254 26.55034912 -26.45020508 27.10069824 -26.68212891 27.66772461 C-28.40612324 30.7187283 -30.60242889 32.84389807 -33.0859375 35.31640625 C-33.58412994 35.81414047 -34.08232239 36.31187469 -34.59561157 36.82469177 C-35.64731278 37.87338013 -36.70143516 38.91964526 -37.7578125 39.96362305 C-39.36775679 41.5553388 -40.96958223 43.15488314 -42.5703125 44.75585938 C-51.10541817 53.25004388 -51.10541817 53.25004388 -55 56 C-55.66 55.67 -56.32 55.34 -57 55 C-49.86929766 47.82303867 -42.73326336 40.65142699 -35.59029579 33.48667145 C-32.2740069 30.15992755 -28.95961123 26.83134143 -25.64941406 23.49853516 C-22.45721612 20.28466998 -19.26021392 17.07565824 -16.05976486 13.87001038 C-14.83715371 12.64369244 -13.61630956 11.41561031 -12.39723587 10.18577576 C-10.69470519 8.46881152 -8.98610433 6.75812297 -7.27587891 5.04882812 C-6.51522881 4.2773922 -6.51522881 4.2773922 -5.73921204 3.4903717 C-2.22810432 0 -2.22810432 0 0 0 Z " fill="#2E2F2A" transform="translate(623,399)"/>
<path d="M0 0 C2.98090266 3.61224665 3.55066068 6.32687112 4 11 C4.99 11 5.98 11 7 11 C7.77944772 19.79909866 5.85286851 26.11537979 2 34 C1.01 33.67 0.02 33.34 -1 33 C-0.9278125 32.29359375 -0.855625 31.5871875 -0.78125 30.859375 C0.14981329 20.56595307 0.09266553 10.32705833 0 0 Z " fill="#EFD8CB" transform="translate(643,575)"/>
<path d="M0 0 C0.66 0 1.32 0 2 0 C2 0.66 2 1.32 2 2 C2.99 2 3.98 2 5 2 C5 7.61 5 13.22 5 19 C5.66 19 6.32 19 7 19 C6.67 21.97 6.34 24.94 6 28 C1.57566048 23.57566048 -0.14435947 19.53793542 -0.29296875 13.37890625 C-0.27330671 11.773173 -0.23794109 10.16756123 -0.1875 8.5625 C-0.17396484 7.73556641 -0.16042969 6.90863281 -0.14648438 6.05664062 C-0.11146992 4.0374736 -0.05767562 2.01864682 0 0 Z " fill="#E8E3DC" transform="translate(332,268)"/>
<path d="M0 0 C0.66 0 1.32 0 2 0 C2.55252633 12.09418741 2.35387975 24.29872029 -6 34 C-6.99 34 -7.98 34 -9 34 C-7.87548273 31.0280615 -6.77706209 28.66559313 -5 26 C-4.54286959 23.5855914 -4.54286959 23.5855914 -4.3671875 20.89453125 C-4.28339844 19.91162109 -4.19960938 18.92871094 -4.11328125 17.91601562 C-3.99533203 16.37977539 -3.99533203 16.37977539 -3.875 14.8125 C-3.78863281 13.77673828 -3.70226562 12.74097656 -3.61328125 11.67382812 C-3.40114551 9.11641392 -3.19703581 6.55861459 -3 4 C-2.67 4 -2.34 4 -2 4 C-2 5.98 -2 7.96 -2 10 C-1.34 10 -0.68 10 0 10 C0 6.7 0 3.4 0 0 Z " fill="#DAD5CC" transform="translate(414,267)"/>
<path d="M0 0 C0.84691406 0.23988647 0.84691406 0.23988647 1.7109375 0.48461914 C4.06846844 1.01541562 6.21168893 1.17313433 8.625 1.24609375 C9.49640625 1.27896484 10.3678125 1.31183594 11.265625 1.34570312 C13.08841485 1.40689678 14.91133986 1.46418924 16.734375 1.51757812 C17.60578125 1.55173828 18.4771875 1.58589844 19.375 1.62109375 C20.16648437 1.6461499 20.95796875 1.67120605 21.7734375 1.69702148 C24.20485164 2.0278751 25.88046274 2.7905209 28 4 C27 6 27 6 25.390625 6.62109375 C22.15648557 7.13369428 19.02272949 7.09280305 15.75 7.0625 C14.48671875 7.05347656 13.2234375 7.04445313 11.921875 7.03515625 C10.95765625 7.02355469 9.9934375 7.01195312 9 7 C9 6.34 9 5.68 9 5 C7.88625 4.9175 6.7725 4.835 5.625 4.75 C2 4 2 4 0.5625 1.9375 C0.376875 1.298125 0.19125 0.65875 0 0 Z " fill="#EDD8CD" transform="translate(357,724)"/>
<path d="M0 0 C0.33 0 0.66 0 1 0 C1.01417969 0.90621094 1.02835937 1.81242188 1.04296875 2.74609375 C1.40131956 11.89856712 2.49497965 18.26323992 8.8984375 24.99609375 C15.10173285 30.71215709 20.42273859 33.50796275 29 33.25 C30.02867187 33.24226562 30.02867187 33.24226562 31.078125 33.234375 C35.13976846 33.17236518 39.01444005 32.77220224 43 32 C42.67 32.99 42.34 33.98 42 35 C38.37543986 35.14728458 34.75166479 35.23472226 31.125 35.3125 C30.11179687 35.35439453 29.09859375 35.39628906 28.0546875 35.43945312 C20.92242523 35.5537522 14.73841641 34.54837707 9 30 C8.34423828 27.88012695 8.34423828 27.88012695 8 26 C7.401875 25.731875 6.80375 25.46375 6.1875 25.1875 C2.8293004 23.36447736 1.37760756 20.44503035 0 17 C-0.44609833 13.99383243 -0.38502114 11.09268602 -0.25 8.0625 C-0.23195313 7.28326172 -0.21390625 6.50402344 -0.1953125 5.70117188 C-0.14866383 3.80023869 -0.07693829 1.89994831 0 0 Z " fill="#F7C7B4" transform="translate(342,691)"/>
<path d="M0 0 C0.99 0.33 1.98 0.66 3 1 C1.95199219 1.96099609 1.95199219 1.96099609 0.8828125 2.94140625 C-6.08244909 9.36445675 -6.08244909 9.36445675 -9 18 C-9.17144531 18.61359375 -9.34289062 19.2271875 -9.51953125 19.859375 C-10.89121239 25.97060479 -10.31255521 32.92943216 -9 39 C-12.8905116 33.92541965 -13.18251541 30.52291215 -13.1875 24.1875 C-13.19974609 23.37990234 -13.21199219 22.57230469 -13.22460938 21.74023438 C-13.23790856 16.32746558 -13.08899227 12.1732616 -9.16015625 8.0859375 C-8.12181641 7.23902344 -8.12181641 7.23902344 -7.0625 6.375 C-4.59322424 4.33496283 -2.22736885 2.30417467 0 0 Z " fill="#E67E5E" transform="translate(356,672)"/>
<path d="M0 0 C1.32 0 2.64 0 4 0 C4 0.66 4 1.32 4 2 C4.763125 2.103125 5.52625 2.20625 6.3125 2.3125 C9.36053239 3.09222922 10.0208205 3.63005941 12 6 C13.07879635 7.92701027 14.09471031 9.88991732 15.0625 11.875 C15.82240234 13.41800781 15.82240234 13.41800781 16.59765625 14.9921875 C17.06042969 15.98476563 17.52320313 16.97734375 18 18 C18.38800781 18.74894531 18.77601563 19.49789063 19.17578125 20.26953125 C20.43186396 24.4306773 20.20872251 28.49435054 20.125 32.8125 C20.11597656 33.69615234 20.10695313 34.57980469 20.09765625 35.49023438 C20.07419637 37.66027359 20.03832865 39.83017247 20 42 C19.67 42 19.34 42 19 42 C18.97421875 41.14019531 18.9484375 40.28039062 18.921875 39.39453125 C18.31245339 26.69363081 16.29814763 15.2595661 7 6 C4.73578043 4.16747988 2.44365728 2.59585782 0 1 C0 0.67 0 0.34 0 0 Z " fill="#FBD9CA" transform="translate(391,243)"/>
<path d="M0 0 C3.36284893 3.05713539 4.84072589 5.52949256 5.3359375 10.1015625 C5.46290401 21.55394174 3.39465638 28.9684984 -4.31640625 37.50390625 C-6 39 -6 39 -9 40 C-7.6738993 37.08002827 -6.18964438 34.95697126 -4 32.625 C1.03806677 26.88822324 2.13556511 19.90573691 2.1875 12.4375 C2.20167969 11.50808594 2.21585937 10.57867188 2.23046875 9.62109375 C1.9907245 6.89451081 1.27331903 5.38055297 0 3 C0 2.01 0 1.02 0 0 Z " fill="#E87B5B" transform="translate(396,679)"/>
<path d="M0 0 C7.55394863 3.77697432 11.78680226 10.42014891 15 18 C15.94137255 20.82411765 16.11725382 22.52918032 16.09765625 25.44921875 C16.09443359 26.29677734 16.09121094 27.14433594 16.08789062 28.01757812 C16.07951172 28.89865234 16.07113281 29.77972656 16.0625 30.6875 C16.05798828 31.58017578 16.05347656 32.47285156 16.04882812 33.39257812 C16.03704983 35.59511987 16.02060164 37.79752599 16 40 C15.67 40 15.34 40 15 40 C14.89042969 38.70964844 14.78085937 37.41929687 14.66796875 36.08984375 C14.50841916 34.37233937 14.34822888 32.65489442 14.1875 30.9375 C14.11724609 30.08994141 14.04699219 29.24238281 13.97460938 28.36914062 C13.28993103 21.27587299 11.86735004 15.51693448 6.8125 10.1875 C4 7.19708029 4 7.19708029 4 5 C3.34 5 2.68 5 2 5 C1.34 3.35 0.68 1.7 0 0 Z " fill="#DB886D" transform="translate(393,245)"/>
<path d="M0 0 C0.33 0 0.66 0 1 0 C2.79271012 7.51160358 3.95691013 17.66433086 0.6953125 24.890625 C-0.75858616 26.82451891 -2.12796206 28.47021831 -4 30 C-4.33 30 -4.66 30 -5 30 C-4.58864153 26.05095867 -4.08022182 23.18718424 -2.5 19.5 C-0.01638257 13.39393568 -0.24585324 6.51087199 0 0 Z " fill="#F3DDD1" transform="translate(402,686)"/>
<path d="M0 0 C15.74487472 -0.738041 15.74487472 -0.738041 23 4 C23 4.66 23 5.32 23 6 C23.7425 5.979375 24.485 5.95875 25.25 5.9375 C28.61784947 7.23871457 28.87985179 8.12354753 30.375 11.3125 C31.82320717 14.65664251 32.22247889 16.53101769 31 20 C30.72027344 19.41992188 30.44054687 18.83984375 30.15234375 18.2421875 C26.55261421 11.22792351 22.65043601 7.07573812 15.8125 3.1875 C10.58737756 1.56000285 5.44581011 1.25932429 0 1 C0 0.67 0 0.34 0 0 Z " fill="#F5C9B7" transform="translate(611,559)"/>
<path d="M0 0 C0 2 0 2 -1.88671875 4.01171875 C-2.92414513 5.00816039 -3.96197208 6.00418502 -5 7 C-6.55093614 8.5454131 -8.0988199 10.09389235 -9.64453125 11.64453125 C-14.4296875 16.4296875 -19.21484375 21.21484375 -24 26 C-24.99 25.67 -25.98 25.34 -27 25 C-23.48259521 21.43326807 -19.95875538 17.87307049 -16.42871094 14.31884766 C-15.22801105 13.10807151 -14.0291098 11.89550899 -12.83203125 10.68115234 C-11.11404252 8.93898662 -9.38975125 7.20328456 -7.6640625 5.46875 C-7.12754059 4.92190552 -6.59101868 4.37506104 -6.03823853 3.81164551 C-2.22774341 0 -2.22774341 0 0 0 Z " fill="#343331" transform="translate(623,399)"/>
<path d="M0 0 C8.37209302 2.62325581 8.37209302 2.62325581 11.8125 4.6875 C18.95560713 7.62877941 27.51344869 6.15177712 35 5 C31.06002508 8.93997492 25.65951055 9.20566914 20.3125 9.5 C13.34382665 9.40333492 7.74241465 6.84386388 2 3 C1.34 2.01 0.68 1.02 0 0 Z " fill="#DD846A" transform="translate(594,610)"/>
<path d="M0 0 C4.93116368 0.16664455 9.11177646 0.51622496 13.73046875 2.4609375 C13.73046875 3.7809375 13.73046875 5.1009375 13.73046875 6.4609375 C7.46046875 5.8009375 1.19046875 5.1409375 -5.26953125 4.4609375 C-2.26953125 0.4609375 -2.26953125 0.4609375 0 0 Z " fill="#E7E2DA" transform="translate(373.26953125,232.5390625)"/>
<path d="M0 0 C0.99 0 1.98 0 3 0 C1.95136063 2.97114488 0.81010166 5.27297886 -1 7.875 C-5.17876756 14.40432431 -5.48149755 21.45442494 -6 29 C-6.66 28.67 -7.32 28.34 -8 28 C-8.98758575 16.66105253 -6.23593305 9.35389958 0 0 Z " fill="#F8DCCE" transform="translate(348,673)"/>
<path d="M0 0 C3.40928118 5.11392176 4.27809708 9.65293358 4.25 15.75 C4.25515625 16.87921875 4.2603125 18.0084375 4.265625 19.171875 C4 22 4 22 2 24 C1.95101563 23.14535156 1.90203125 22.29070313 1.8515625 21.41015625 C1.77679688 20.30542969 1.70203125 19.20070313 1.625 18.0625 C1.52058594 16.40927734 1.52058594 16.40927734 1.4140625 14.72265625 C1.27742188 13.82417969 1.14078125 12.92570313 1 12 C0.34 11.67 -0.32 11.34 -1 11 C-2.23882213 7.72076495 -3.21205747 4.41441762 -4 1 C-2.68 0.67 -1.36 0.34 0 0 Z " fill="#D7D0CA" transform="translate(404,680)"/>
<path d="M0 0 C4.15388966 3.5962442 4.3925287 7.73302359 5 13 C5.62913476 21.83605679 5.68997452 29.27410448 1 37 C0.67 37 0.34 37 0 37 C-0.1875 33.75 -0.1875 33.75 0 30 C0.50273437 29.43796875 1.00546875 28.8759375 1.5234375 28.296875 C3.75383413 24.82736913 3.14414754 21.44627073 2.8125 17.5 C2.76802734 16.74074219 2.72355469 15.98148437 2.67773438 15.19921875 C2.40204486 11.31233688 1.99406125 8.41839072 0 5 C-0.125 2.25 -0.125 2.25 0 0 Z " fill="#EE7C5A" transform="translate(403,259)"/>
<path d="M0 0 C3.4375 1.5625 3.4375 1.5625 6 3 C5.34 4.32 4.68 5.64 4 7 C3.0409375 6.566875 3.0409375 6.566875 2.0625 6.125 C-1.29891424 4.89019477 -4.59552065 4.21407564 -8.109375 3.5625 C-8.73328125 3.376875 -9.3571875 3.19125 -10 3 C-10.33 2.34 -10.66 1.68 -11 1 C-7.20197333 -1.58265814 -4.35434897 -0.97597477 0 0 Z " fill="#DDD4CB" transform="translate(627,555)"/>
<path d="M0 0 C0.99 0.598125 1.98 1.19625 3 1.8125 C6.8643116 4.03309624 10.79901802 5.52597123 15 7 C14.67 7.99 14.34 8.98 14 10 C8.36382567 9.53031881 3.78582459 8.09327687 -1 5 C-1.33 4.34 -1.66 3.68 -2 3 C-1.34 3 -0.68 3 0 3 C0 2.01 0 1.02 0 0 Z " fill="#D8D4CA" transform="translate(353,307)"/>
<path d="M0 0 C0.99 0.33 1.98 0.66 3 1 C-4 8 -11 15 -18 22 C-18.99 21.67 -19.98 21.34 -21 21 C-19.71451591 19.66070495 -18.42141845 18.32871357 -17.125 17 C-16.40570312 16.2575 -15.68640625 15.515 -14.9453125 14.75 C-13 13 -13 13 -11 13 C-10.76539063 12.43796875 -10.53078125 11.8759375 -10.2890625 11.296875 C-8.69337 8.45364109 -6.71075457 6.51901873 -4.375 4.25 C-3.55773437 3.45078125 -2.74046875 2.6515625 -1.8984375 1.828125 C-0.95871094 0.92320312 -0.95871094 0.92320312 0 0 Z " fill="#363632" transform="translate(788,232)"/>
<path d="M0 0 C0.625 1.8125 0.625 1.8125 1 4 C0.01 5.485 0.01 5.485 -1 7 C-2.25544983 11.38223053 -2.11500101 15.79337496 -2.0625 20.3125 C-2.05798828 21.05306641 -2.05347656 21.79363281 -2.04882812 22.55664062 C-2.03712175 24.37112899 -2.01918898 26.18557534 -2 28 C-1.34 28 -0.68 28 0 28 C0.33 29.32 0.66 30.64 1 32 C0.01 32.495 0.01 32.495 -1 33 C-4.85185174 25.79871196 -5.84143902 19.11545795 -5 11 C-3.96497229 7.81493745 -2.60531867 4.93341364 -1 2 C-0.67 1.34 -0.34 0.68 0 0 Z " fill="#DD876D" transform="translate(590,572)"/>
<path d="M0 0 C0 0.66 0 1.32 0 2 C-0.99 2.495 -0.99 2.495 -2 3 C-2.37125 3.721875 -2.7425 4.44375 -3.125 5.1875 C-5.37830183 8.56745274 -7.95139103 10.37285202 -11.2578125 12.66796875 C-13.13259727 13.89943615 -13.13259727 13.89943615 -14 16 C-14.66 16 -15.32 16 -16 16 C-14.03466064 9.9253147 -7.26769621 0 0 0 Z " fill="#E38063" transform="translate(358,243)"/>
<path d="M0 0 C2.10495964 0.06005591 4.20911435 0.14885359 6.3125 0.25 C7.48425781 0.29640625 8.65601563 0.3428125 9.86328125 0.390625 C13 1 13 1 14.91796875 3.046875 C15.45357422 4.01367188 15.45357422 4.01367188 16 5 C13.9377952 5.054348 11.87517184 5.09294961 9.8125 5.125 C8.66394531 5.14820313 7.51539063 5.17140625 6.33203125 5.1953125 C3.08259628 5.00484152 0.91339479 4.39360127 -2 3 C-1.34 2.01 -0.68 1.02 0 0 Z " fill="#CEC9C3" transform="translate(604,620)"/>
<path d="M0 0 C0.66 0 1.32 0 2 0 C2 2.3125 2 2.3125 1 5 C-3.36497841 7.66690805 -7.93598589 8.37980106 -13 8 C-13.33 7.01 -13.66 6.02 -14 5 C-5.57142857 2.71428571 -5.57142857 2.71428571 -1 3 C-0.67 2.01 -0.34 1.02 0 0 Z " fill="#E7E2DB" transform="translate(631,616)"/>
<path d="M0 0 C-3.94287655 5.52002717 -8.74273155 9.27437628 -15 12 C-15.99 11.67 -16.98 11.34 -18 11 C-17.443125 10.608125 -16.88625 10.21625 -16.3125 9.8125 C-13.86086563 7.97325283 -13.86086563 7.97325283 -11.4375 5.375 C-9 3 -9 3 -6 2 C-6 1.34 -6 0.68 -6 0 C-3 -1 -3 -1 0 0 Z " fill="#E57A5A" transform="translate(403,297)"/>
<path d="M0 0 C0.99 0.33 1.98 0.66 3 1 C3 1.66 3 2.32 3 3 C4.65 3 6.3 3 8 3 C8 3.99 8 4.98 8 6 C8.5775 6.268125 9.155 6.53625 9.75 6.8125 C12.03707749 8.01956868 13.93467141 9.45100356 16 11 C17.31836295 11.69580267 18.64791086 12.37224433 20 13 C14.02442121 13.74694735 10.5794803 11.49821411 6 8 C3.80057521 6.0941425 1.94356906 4.1865152 0 2 C0 1.34 0 0.68 0 0 Z " fill="#E47557" transform="translate(347,711)"/>
<path d="M0 0 C-1.47600519 3.97582901 -3.44792428 5.04905544 -7.1875 6.875 C-12.13316459 9.42592174 -15.94086477 12.21147379 -20 16 C-17.85224181 9.15103776 -12.00621259 5.45909797 -6.078125 1.8203125 C-3.98243244 0.73096736 -2.38502143 0 0 0 Z " fill="#D9D9D2" transform="translate(360,235)"/>
<path d="M0 0 C-3.3962949 1.1320983 -5.7673341 0.70209128 -9.26171875 0.26171875 C-16.54925367 -0.43480741 -23.80421862 -0.35932302 -31 1 C-23.71034471 -6.28965529 -8.41167713 -3.9584363 0 0 Z " fill="#DC896E" transform="translate(389,242)"/>
<path d="M0 0 C4.29 0 8.58 0 13 0 C13.33 1.32 13.66 2.64 14 4 C9.38 4 4.76 4 0 4 C0 2.68 0 1.36 0 0 Z " fill="#E8E1D9" transform="translate(367,313)"/>
<path d="M0 0 C0.53625 0.268125 1.0725 0.53625 1.625 0.8125 C0.0654735 4.64042868 -2.21131836 7.17609864 -5.375 9.8125 C-7.6875 9.625 -7.6875 9.625 -9.375 8.8125 C-9.12158809 5.39143924 -8.06717816 4.50467816 -5.5625 2 C-2.375 -0.1875 -2.375 -0.1875 0 0 Z " fill="#E4DDD4" transform="translate(405.375,299.1875)"/>
<path d="M0 0 C10.42553658 -0.39177382 17.66788861 0.0764979 25.56640625 7.34375 C27 9 27 9 27 11 C25.0625 10.1875 25.0625 10.1875 23 9 C22.67 8.01 22.34 7.02 22 6 C15.45631978 2.43902053 7.31139357 2 0 2 C0 1.34 0 0.68 0 0 Z " fill="#E27A5B" transform="translate(369,668)"/>
<path d="M0 0 C0.66 0 1.32 0 2 0 C4.49118146 5.67989374 5.38766322 8.94474232 4 15 C1 13 1 13 0.234375 10.21484375 C0.07453125 9.13332031 -0.0853125 8.05179688 -0.25 6.9375 C-0.42015625 5.85339844 -0.5903125 4.76929688 -0.765625 3.65234375 C-0.84296875 2.77707031 -0.9203125 1.90179687 -1 1 C-0.67 0.67 -0.34 0.34 0 0 Z " fill="#DCD7CF" transform="translate(645,573)"/>
<path d="M0 0 C6.73608746 2.88689463 11.0764493 6.60504551 16 12 C15.01 12 14.02 12 13 12 C12 11 11 10 10 9 C7.60931266 7.89363605 7.60931266 7.89363605 5 7 C3.33333333 6.33333333 1.66666667 5.66666667 0 5 C0 3.35 0 1.7 0 0 Z " fill="#DAD6CE" transform="translate(386,663)"/>
<path d="M0 0 C1.12921875 -0.00515625 2.2584375 -0.0103125 3.421875 -0.015625 C6.25 0.25 6.25 0.25 8.25 2.25 C4.64515677 2.83854583 1.28355095 3.25057846 -2.375 3.1875 C-5.71627288 3.24937542 -7.77235008 3.80629095 -10.75 5.25 C-11.41 4.26 -12.07 3.27 -12.75 2.25 C-8.35793615 0.57303017 -4.6952197 -0.02163696 0 0 Z " fill="#D0CEC9" transform="translate(371.75,659.75)"/>
<path d="M0 0 C0 0.66 0 1.32 0 2 C-8.36005884 4.38858824 -16.38735156 4.190218 -25 4 C-25.33 3.34 -25.66 2.68 -26 2 C-24.82244141 2.03480469 -24.82244141 2.03480469 -23.62109375 2.0703125 C-15.44890897 2.21069359 -8.06017478 -0.32898673 0 0 Z " fill="#F5D7CA" transform="translate(630,617)"/>
<path d="M0 0 C0.66 0.33 1.32 0.66 2 1 C0.54234835 2.62561151 -0.91614386 4.25046934 -2.375 5.875 C-3.18710937 6.77992188 -3.99921875 7.68484375 -4.8359375 8.6171875 C-6.19076205 10.10896183 -7.57505435 11.57505435 -9 13 C-9.33 12.34 -9.66 11.68 -10 11 C-10.99 11.495 -10.99 11.495 -12 12 C-10.64195446 8.8785222 -9.18624145 7.03041771 -6.5625 4.875 C-5.96566406 4.37742188 -5.36882812 3.87984375 -4.75390625 3.3671875 C-3.22237694 2.17334505 -1.6157298 1.0771532 0 0 Z " fill="#E6E0D7" transform="translate(350,242)"/>
<path d="M0 0 C0.66 0.66 1.32 1.32 2 2 C-1.96 5.96 -5.92 9.92 -10 14 C-10.99 13.67 -11.98 13.34 -13 13 C-8.71 8.71 -4.42 4.42 0 0 Z " fill="#2E2F2A" transform="translate(437,387)"/>
<path d="M0 0 C0.79921875 0.01804687 1.5984375 0.03609375 2.421875 0.0546875 C3.02515625 0.07789063 3.6284375 0.10109375 4.25 0.125 C3.26 0.455 2.27 0.785 1.25 1.125 C1.25 1.785 1.25 2.445 1.25 3.125 C1.91 3.455 2.57 3.785 3.25 4.125 C-0.71 4.125 -4.67 4.125 -8.75 4.125 C-8.75 3.465 -8.75 2.805 -8.75 2.125 C-5.68753253 0.34090198 -3.52920727 -0.10380021 0 0 Z " fill="#E9E2DB" transform="translate(374.75,726.875)"/>
<path d="M0 0 C0.33 0.66 0.66 1.32 1 2 C-3.03523352 6.81123996 -7.04467233 11.13242719 -12 15 C-12.66 14.67 -13.32 14.34 -14 14 C-9.38 9.38 -4.76 4.76 0 0 Z " fill="#343430" transform="translate(705,315)"/>
<path d="M0 0 C3.31204667 0 5.39730118 0.49594649 7.95703125 2.63671875 C11.04026159 5.93345181 12.86738553 7.93908426 13.4375 12.5 C13.2209375 13.7375 13.2209375 13.7375 13 15 C11 13 11 13 9.5625 10.0625 C8.19922279 7.39047667 7.11023168 6.00974446 5 4 C5 3.34 5 2.68 5 2 C3.35 1.67 1.7 1.34 0 1 C0 0.67 0 0.34 0 0 Z " fill="#DF775A" transform="translate(627,564)"/>
<path d="M0 0 C0.33 0.99 0.66 1.98 1 3 C-0.45217676 4.50596108 -1.91192861 6.00462104 -3.375 7.5 C-4.18710937 8.3353125 -4.99921875 9.170625 -5.8359375 10.03125 C-8 12 -8 12 -10 12 C-10.33 12.99 -10.66 13.98 -11 15 C-11 11 -11 11 -8.59375 8.203125 C-7.57248913 7.20839039 -6.5407803 6.22429311 -5.5 5.25 C-4.97535156 4.74339844 -4.45070313 4.23679687 -3.91015625 3.71484375 C-2.61558637 2.46734913 -1.3089224 1.23242693 0 0 Z " fill="#2D2D29" transform="translate(645,375)"/>
<path d="M0 0 C0.66 0.33 1.32 0.66 2 1 C0.28032649 4.02990095 -1.29238306 6.76327296 -4 9 C-4.66 9 -5.32 9 -6 9 C-6.33 9.99 -6.66 10.98 -7 12 C-6.7589852 5.85412262 -6.7589852 5.85412262 -4.59765625 3.421875 C-3.11953029 2.21155069 -1.56352047 1.09779097 0 0 Z " fill="#E47558" transform="translate(598,564)"/>
<path d="M0 0 C1.32 0 2.64 0 4 0 C4 0.66 4 1.32 4 2 C4.763125 2.103125 5.52625 2.20625 6.3125 2.3125 C10.03105399 3.263758 11.22010793 4.79116728 13.25 7.9375 C14.15124742 10.4159304 13.7238474 11.52340784 13 14 C12.64808594 13.48050781 12.29617188 12.96101562 11.93359375 12.42578125 C8.42984455 7.47662116 5.04997059 4.33298059 0 1 C0 0.67 0 0.34 0 0 Z " fill="#F9CFBE" transform="translate(391,243)"/>
<path d="M0 0 C0.33 0 0.66 0 1 0 C1.08144943 2.70894767 1.14070614 5.41541263 1.1875 8.125 C1.22520508 9.26582031 1.22520508 9.26582031 1.26367188 10.4296875 C1.32797453 15.4024261 0.65594442 18.63616482 -2 23 C-2.66 23 -3.32 23 -4 23 C-3.2884375 21.205625 -3.2884375 21.205625 -2.5625 19.375 C-0.42265099 13.06648288 -0.2726348 6.60904361 0 0 Z " fill="#F6BFA9" transform="translate(409,271)"/>
<path d="M0 0 C0.99 0.495 0.99 0.495 2 1 C2.44921875 3.87109375 2.44921875 3.87109375 2.6875 7.4375 C2.77386719 8.61183594 2.86023438 9.78617188 2.94921875 10.99609375 C3 14 3 14 2 16 C1.34 16 0.68 16 0 16 C0 10.72 0 5.44 0 0 Z " fill="#E8E3DC" transform="translate(404,691)"/>
<path d="M0 0 C0.33 0 0.66 0 1 0 C1.48736475 6.70126536 0.07708804 11.06561592 -3 17 C-3.33 17 -3.66 17 -4 17 C-4.28707151 12.02409389 -4.09317169 9.8355329 -1 6 C-0.27954633 2.84881675 -0.27954633 2.84881675 0 0 Z " fill="#DF7253" transform="translate(407,279)"/>
<path d="M0 0 C0.33 0 0.66 0 1 0 C1.91397824 5.68697571 1.91397824 10.31302429 1 16 C0.34 16 -0.32 16 -1 16 C-1.02692484 13.70839681 -1.04636124 11.41670454 -1.0625 9.125 C-1.07410156 7.84882812 -1.08570313 6.57265625 -1.09765625 5.2578125 C-1 2 -1 2 0 0 Z " fill="#D2D1CC" transform="translate(580,581)"/>
<path d="M0 0 C0.33 0 0.66 0 1 0 C1.125 5.75 1.125 5.75 0 8 C-0.23172827 10.54615009 -0.41894529 13.07396225 -0.5625 15.625 C-0.60568359 16.33140625 -0.64886719 17.0378125 -0.69335938 17.765625 C-0.79944751 19.51018537 -0.90022889 21.25506697 -1 23 C-1.33 23 -1.66 23 -2 23 C-2.0582253 19.91674642 -2.09367134 16.83363495 -2.125 13.75 C-2.14175781 12.87730469 -2.15851563 12.00460937 -2.17578125 11.10546875 C-2.18222656 10.26113281 -2.18867188 9.41679687 -2.1953125 8.546875 C-2.20578613 7.77182617 -2.21625977 6.99677734 -2.22705078 6.19824219 C-1.97326556 3.74116461 -1.22444152 2.12688458 0 0 Z " fill="#DE785B" transform="translate(341,259)"/>
<path d="M0 0 C1.45947705 0.06006078 2.91779272 0.1488689 4.375 0.25 C5.59316406 0.31960938 5.59316406 0.31960938 6.8359375 0.390625 C9 1 9 1 10.2890625 3.046875 C10.64097656 4.01367188 10.64097656 4.01367188 11 5 C11.66 5 12.32 5 13 5 C12.67 5.99 12.34 6.98 12 8 C8 5.33333333 4 2.66666667 0 0 Z " fill="#F5CAB6" transform="translate(381,667)"/>
<path d="M0 0 C0.66 0 1.32 0 2 0 C1.67 2.97 1.34 5.94 1 9 C-0.32 9.33 -1.64 9.66 -3 10 C-1.125 2.25 -1.125 2.25 0 0 Z " fill="#E6E3DD" transform="translate(647,594)"/>
<path d="M0 0 C0.99 0.33 1.98 0.66 3 1 C0.89851796 4.98175544 -1.36905358 7.35039045 -5 10 C-4.51744168 5.65697516 -3.20847102 3.89797382 0 1 C0 0.67 0 0.34 0 0 Z " fill="#CECCC5" transform="translate(641,608)"/>
<path d="M0 0 C0.99 0.33 1.98 0.66 3 1 C0.69 3.64 -1.62 6.28 -4 9 C-4.66 8.01 -5.32 7.02 -6 6 C-4.02 4.02 -2.04 2.04 0 0 Z " fill="#252621" transform="translate(565,455)"/>
<path d="M0 0 C0.66 0 1.32 0 2 0 C2 0.66 2 1.32 2 2 C2.99 2 3.98 2 5 2 C5 5.96 5 9.92 5 14 C4.67 14 4.34 14 4 14 C4 11.36 4 8.72 4 6 C3.01 6.33 2.02 6.66 1 7 C0.67 4.69 0.34 2.38 0 0 Z " fill="#F0E0D4" transform="translate(332,268)"/>
<path d="M0 0 C0 3 0 3 -1.96875 5.26171875 C-2.8040625 6.06222656 -3.639375 6.86273438 -4.5 7.6875 C-5.3353125 8.49574219 -6.170625 9.30398437 -7.03125 10.13671875 C-7.6809375 10.75160156 -8.330625 11.36648437 -9 12 C-9.66 11.67 -10.32 11.34 -11 11 C-9.92173635 9.72486237 -8.83714481 8.45507431 -7.75 7.1875 C-7.14671875 6.47980469 -6.5434375 5.77210938 -5.921875 5.04296875 C-4.07629602 3.08110329 -2.20054668 1.54330375 0 0 Z " fill="#262724" transform="translate(271,218)"/>
<path d="M0 0 C0.99 0.33 1.98 0.66 3 1 C3 1.66 3 2.32 3 3 C3.86625 3.37125 3.86625 3.37125 4.75 3.75 C7.3002997 5.16683317 9.01785701 6.87627537 11 9 C10.67 9.66 10.34 10.32 10 11 C8.70145279 9.92492371 7.41141639 8.83956264 6.125 7.75 C5.40570313 7.14671875 4.68640625 6.5434375 3.9453125 5.921875 C2.02947882 4.02912366 1.03550955 2.46342273 0 0 Z " fill="#DB7F64" transform="translate(347,711)"/>
<path d="M0 0 C0.99 0.33 1.98 0.66 3 1 C5.06618749 0.90731495 5.06618749 0.90731495 7.1875 0.5625 C8.445625 0.376875 9.70375 0.19125 11 0 C7.5965383 3.4034617 2.55827869 3.85115469 -2.1484375 4.125 C-3.76616168 4.125 -5.3837385 4.06877709 -7 4 C-7 3.67 -7 3.34 -7 3 C-5.5459375 2.5359375 -5.5459375 2.5359375 -4.0625 2.0625 C-1.15934208 1.30476658 -1.15934208 1.30476658 0 0 Z " fill="#EA7A5D" transform="translate(621,613)"/>
<path d="M0 0 C-1.485 1.98 -1.485 1.98 -3 4 C-7.75 3.25 -7.75 3.25 -10 1 C-6.52674819 -0.1577506 -3.63932552 -0.06866652 0 0 Z " fill="#D4D2CB" transform="translate(371,233)"/>
<path d="M0 0 C2.1640625 0.0234375 2.1640625 0.0234375 4.625 0.375 C5.85089844 0.54128906 5.85089844 0.54128906 7.1015625 0.7109375 C7.72804688 0.80632813 8.35453125 0.90171875 9 1 C9 1.66 9 2.32 9 3 C7.54364629 3.22174933 6.08477044 3.42698698 4.625 3.625 C3.81289063 3.74101563 3.00078125 3.85703125 2.1640625 3.9765625 C1.44992187 3.98429688 0.73578125 3.99203125 0 4 C-0.66 3.34 -1.32 2.68 -2 2 C-1.34 1.34 -0.68 0.68 0 0 Z " fill="#D7D0C7" transform="translate(604,620)"/>
<path d="M0 0 C3.9945793 2.05127045 6.10267152 3.88912162 8 8 C7.67 8.66 7.34 9.32 7 10 C5.5 8.625 5.5 8.625 4 7 C4 6.34 4 5.68 4 5 C3.34 5 2.68 5 2 5 C1.34 3.35 0.68 1.7 0 0 Z " fill="#E17F63" transform="translate(393,245)"/>
<path d="M0 0 C0 0.99 0 1.98 0 3 C-5.75 4.125 -5.75 4.125 -8 3 C-8 2.34 -8 1.68 -8 1 C-5.07175348 0.02391783 -3.04386724 -0.08226668 0 0 Z " fill="#DEDCD3" transform="translate(384,727)"/>
<path d="M0 0 C0.33 0 0.66 0 1 0 C1.29162929 4.95769796 1.12940055 8.02806853 -2 12 C-2.66 12 -3.32 12 -4 12 C-2.66666667 8 -1.33333333 4 0 0 Z " fill="#F9D0C0" transform="translate(401,701)"/>
<path d="M0 0 C-1 3 -1 3 -2.625 4.1875 C-5.80382728 5.27499354 -8.66661533 5.1282071 -12 5 C-10.66666667 4.33333333 -9.33333333 3.66666667 -8 3 C-6.96875 2.46375 -5.9375 1.9275 -4.875 1.375 C-2 0 -2 0 0 0 Z " fill="#ED714E" transform="translate(387,718)"/>
<path d="M0 0 C3.63 1.98 7.26 3.96 11 6 C7.59068103 7.13643966 6.99664544 6.86747764 3.8125 5.5625 C3.09707031 5.27503906 2.38164062 4.98757813 1.64453125 4.69140625 C0.83048828 4.34916016 0.83048828 4.34916016 0 4 C0 2.68 0 1.36 0 0 Z " fill="#F9CAB5" transform="translate(351,303)"/>
<path d="M0 0 C3.81684226 1.55500981 6.19195732 4.03595495 9 7 C8.67 7.66 8.34 8.32 8 9 C6.84775972 8.07038578 5.70340824 7.1309875 4.5625 6.1875 C3.60537109 5.40439453 3.60537109 5.40439453 2.62890625 4.60546875 C1 3 1 3 0 0 Z " fill="#DB8A6F" transform="translate(344,295)"/>
<path d="M0 0 C0.66 0 1.32 0 2 0 C0.4722133 3.43752007 -1.50181056 6.18953688 -4 9 C-4.66 9 -5.32 9 -6 9 C-4.4722133 5.56247993 -2.49818944 2.81046312 0 0 Z " fill="#FAD8C7" transform="translate(348,246)"/>
<path d="M0 0 C2.45140787 2.45140787 3.63817703 4.82241307 5 8 C4.67 8.99 4.34 9.98 4 11 C2 10 2 10 0.875 7.1875 C0 4 0 4 0 0 Z " fill="#ED6A48" transform="translate(345,701)"/>
<path d="M0 0 C0.33 1.32 0.66 2.64 1 4 C-0.98 4.99 -0.98 4.99 -3 6 C-3.66 5.34 -4.32 4.68 -5 4 C-3.35 2.68 -1.7 1.36 0 0 Z " fill="#E9E5DF" transform="translate(401,303)"/>
<path d="M0 0 C1.32 0.33 2.64 0.66 4 1 C1.36 2.98 -1.28 4.96 -4 7 C-4 4 -4 4 -2.25 1.75 C-1.5075 1.1725 -0.765 0.595 0 0 Z " fill="#DC8A6E" transform="translate(396,300)"/>
<path d="M0 0 C0.99 0.33 1.98 0.66 3 1 C0.69 3.31 -1.62 5.62 -4 8 C-4.66 7.67 -5.32 7.34 -6 7 C-4.02 4.69 -2.04 2.38 0 0 Z " fill="#2B2A27" transform="translate(757,263)"/>
<path d="M0 0 C0.66 0.66 1.32 1.32 2 2 C1.34 3.32 0.68 4.64 0 6 C-0.99 5.67 -1.98 5.34 -3 5 C-3 3.68 -3 2.36 -3 1 C-2.01 0.67 -1.02 0.34 0 0 Z " fill="#DFDBD4" transform="translate(645,603)"/>
<path d="M0 0 C-0.75 1.9375 -0.75 1.9375 -2 4 C-4 4.875 -4 4.875 -6 5 C-6.66 4.34 -7.32 3.68 -8 3 C-2.25 0 -2.25 0 0 0 Z " fill="#CECDC5" transform="translate(360,235)"/>
<path d="M0 0 C-0.33 2.31 -0.66 4.62 -1 7 C-1.99 6.34 -2.98 5.68 -4 5 C-4 3.68 -4 2.36 -4 1 C-1 0 -1 0 0 0 Z " fill="#D5CEC5" transform="translate(650,581)"/>
<path d="M0 0 C0.66 0.33 1.32 0.66 2 1 C0.02 3.31 -1.96 5.62 -4 8 C-4.66 7.67 -5.32 7.34 -6 7 C-4.02 4.69 -2.04 2.38 0 0 Z " fill="#2E2D28" transform="translate(346,308)"/>
<path d="M0 0 C0.99 0.33 1.98 0.66 3 1 C1.625 2.5 1.625 2.5 0 4 C-0.66 4 -1.32 4 -2 4 C-2.33 4.99 -2.66 5.98 -3 7 C-3 3 -3 3 -1.5 1.25 C-1.005 0.8375 -0.51 0.425 0 0 Z " fill="#3C3B39" transform="translate(637,383)"/>
<path d="M0 0 C0.7425 0.0825 1.485 0.165 2.25 0.25 C0.27579865 2.77259061 -0.71745642 3.2429808 -3.9375 3.9375 C-5.3296875 4.0921875 -5.3296875 4.0921875 -6.75 4.25 C-3.42692308 0.31153846 -3.42692308 0.31153846 0 0 Z " fill="#EA6E4A" transform="translate(387.75,304.75)"/>
</svg>
